<svg xmlns="http://www.w3.org/2000/svg" width="131.048" height="194.007" viewBox="0 0 131.048 194.007">
  <g id="monogram-cutout" transform="translate(-53.005 0.238)">
    <path id="Polygon_1" data-name="Polygon 1" d="M2730.058,39.989,2712.64,29.933V9.819L2730.058-.238l17.419,10.057V29.933Z" transform="translate(-2637.635)" fill="#d7e0e7" fill-rule="evenodd"/>
    <path id="Subtraction_15" data-name="Subtraction 15" d="M12768.3,6608.769h0L12731.007,6587V6561.18l37.295,21.642v25.947Zm.391-64.934h0l-37.684-21.524V6496.4l37.555,21.75.131,25.685Z" transform="translate(-12678 -6415)" fill="#092c4c"/>
    <path id="Path_10495" data-name="Path 10495" d="M3500.213,1875.84l-89.882,51.982V1953.2l33.553-19.3v65.021l22.775-14.082v-64.5l33.38-18.95Z" transform="translate(-3316.161 -1824.545)" fill="#0074cb" fill-rule="evenodd"/>
    <path id="Subtraction_14" data-name="Subtraction 14" d="M12757.474,6506.28,12718,6483.8v-25.658l39.469,22.842,55.808-32.336,22.688,12.257-78.5,45.374Z" transform="translate(-12665 -6415)" fill="#13ccf0"/>
  </g>
</svg>
