<svg xmlns="http://www.w3.org/2000/svg" xmlns:xlink="http://www.w3.org/1999/xlink" width="4444.605" height="848.265" viewBox="0 0 26937 5141">
  <defs>
    <style>
      .cls-1 {
        fill: #d7e0e7;
      }

      .cls-1, .cls-2, .cls-3, .cls-4, .cls-5, .cls-6 {
        fill-rule: evenodd;
      }

      .cls-2 {
        fill: #134675;
      }

      .cls-3 {
        fill: #0074cb;
      }

      .cls-4 {
        fill: #13ccf0;
      }

      .cls-5, .cls-6 {
        fill: none;
        stroke-width: 42px;
      }

      .cls-5 {
        stroke: url(#linear-gradient);
      }

      .cls-6 {
        stroke: url(#linear-gradient-2);
      }
    </style>
    <linearGradient id="linear-gradient" x1="NaN" y1="798" x2="NaN" y2="798" gradientUnits="userSpaceOnUse">
      <stop offset="0" stop-color="#0c2c4c"/>
      <stop offset="1" stop-color="#2873ba"/>
    </linearGradient>
    <linearGradient id="linear-gradient-2" x1="NaN" y1="4426" x2="NaN" y2="4426" xlink:href="#linear-gradient"/>
  </defs>
  <path id="Polygon_1" data-name="Polygon 1" class="cls-1" d="M2435.42,1065.71L1973.85,799.223V266.25L2435.42-.237,2896.98,266.25V799.223Z"/>
  <path class="cls-2" d="M-0.23,1357.24L2386.08,2739.28l3.46,680.65L592.892,2393.77v1022.7L2379.17,4453v687.56L-0.23,3751.62V1357.24Z"/>
  <path class="cls-3" d="M4863.38,1365.3L2481.68,2742.73v672.59l889.1-511.35V4626.91l603.49-373.15V2544.64l884.51-502.14Z"/>
  <path class="cls-4" d="M349.884,1236.31L944.16,890.8l1492.6,863.767L3915.54,897.713l601.18,324.777L2436.76,2424.86Z"/>
  <path id="taxview" class="cls-3" d="M15473.9,1348.49v380.85h518.2v2281.2h443.7V1729.34h518.3V1348.49H15473.9Zm1868.9,2662.05,113.8-592.88h518.3l113.9,592.88h443.6L17971,1348.49h-506.5l-565.4,2662.05h443.7Zm337.6-1759,35.4-266.99,35.3,266.99,153.1,781.34h-373Zm1335,1759,361.2-914.84,361.2,914.84h443.7l-581.1-1393.85,530.1-1268.2h-443.7l-310.2,808.82-310.2-808.82h-443.7l534,1268.2-585,1393.85h443.7Zm1821.8,0h482.9l557.5-2662.05H21434l-325.9,1637.28-27.5,282.69-27.5-282.69-329.8-1637.28h-443.7Zm1303.5-2662.05V4010.54h443.7V1348.49h-443.7Zm848,2662.05h1229V3629.68h-785.3V2832.64h663.5V2451.79h-663.5V1729.34h742.1V1348.49H22988.7V4010.54Zm1382.1-2662.05,427.9,2662.05h443.7l278.8-1562.68,27.5-263.06,31.4,263.06,274.8,1562.68h443.7l428-2662.05h-443.7l-216,1429.18-23.5,247.36-31.4-247.36-259.2-1429.18h-404.4l-259.1,1429.18-31.4,247.36-23.6-247.36-219.9-1429.18h-443.6Z"/>
  <path id="CryptO" class="cls-2" d="M5545.8,2769.82q0,443.73,51.04,692.99,50.985,249.39,143.31,371.04,92.2,121.755,221.84,149.2,129.57,27.525,282.69,27.49h679.26V3629.68H6283.95q-82.455,0-127.61-9.81-45.18-9.765-76.56-53.01-23.565-31.38-41.23-86.38-17.67-54.93-29.45-147.23-11.775-92.22-15.7-229.69-3.96-137.4-3.93-333.74V2589.21q0-196.29,3.93-333.74,3.855-137.385,15.7-229.69,11.79-92.205,29.45-147.24,17.67-54.93,41.23-86.38,31.38-43.155,76.56-53,45.09-9.75,127.61-9.82h639.99V1348.49H6244.68q-153.12,0-282.69,27.48-129.57,27.525-221.84,149.2-92.3,121.755-143.31,371.04-51.075,249.39-51.04,693v180.61ZM7210.54,1348.49V4010.54h443.67V2809.08h306.25l278.77,1201.46h439.75L8376.66,2730.56q125.61-62.76,194.35-204.17,68.64-141.36,68.71-412.27v-74.6q0-239.445-54.97-376.93-55.035-137.385-155.09-208.09-100.125-70.68-241.47-88.34t-314.1-17.67H7210.54Zm443.67,369.07h168.83q125.61,0,200.25,9.82,74.535,9.84,113.86,45.15,39.195,35.34,53,109.94,13.725,74.625,13.75,204.17,0,125.7-13.75,198.28-13.8,72.69-53,109.93-39.3,37.365-113.86,47.12-74.64,9.84-196.32,9.82H7654.21V1717.56Zm1119.01-369.07,573.25,1755.07v906.98h443.67V3103.56l573.26-1755.07H9864.74L9589.9,2334l-19.63,172.75L9550.64,2334l-270.92-985.51h-506.5Zm1833.58,0V4010.54h443.6V3001.47h200.3q172.65,0,314.1-17.67,141.3-17.67,241.5-88.34,100.05-70.665,155.1-210.06,54.9-139.32,54.9-378.89V2043.45q0-243.4-54.9-380.86-55.05-137.385-155.1-208.09-100.2-70.68-241.5-88.34t-314.1-17.67h-643.9Zm592.8,369.07q125.7,0,200.3,9.82,74.55,9.84,113.9,45.15,39.15,35.34,53,109.94,13.65,74.625,13.7,204.17V2275.1q0,129.57-13.7,202.21-13.8,72.69-53,109.93-39.3,37.365-113.9,47.12-74.7,9.84-196.3,9.82h-153.2V1717.56h149.2Zm914.9-369.07v380.85h518.3v2281.2h443.6V1729.34h518.3V1348.49H12114.5Zm1649,1429.18q0,443.745,51.1,693,51,249.375,143.3,371.04,92.25,121.74,221.8,149.2,129.6,27.51,286.7,27.48h133.5q105.9,0,196.3-9.82,90.3-9.75,168.8-47.11,78.45-37.275,139.4-115.83,60.75-78.495,104-217.91,43.2-139.32,66.8-345.52,23.55-206.13,23.5-504.53V2581.35q0-298.335-23.5-504.53-23.55-206.13-64.8-345.51-41.25-139.335-104.1-217.92-62.85-78.5-139.3-115.82-76.65-37.275-168.9-47.12a1850.262,1850.262,0,0,0-194.3-9.81h-137.4q-157.2,0-286.7,27.48-129.45,27.51-221.8,149.2-92.25,121.755-143.3,371.04-51.15,249.375-51.1,692.99v196.32Zm443.7-196.32q0-188.46,3.9-323.92t15.8-229.69q11.7-94.23,29.4-153.12t41.2-90.31q31.35-43.155,76.6-53,45-9.765,127.6-9.82h62.8c55,0,96.8,3.31,125.7,9.82q43.05,9.84,74.6,53,54.9,62.85,72.6,243.43,17.7,180.645,17.7,553.61v196.32q0,188.46-4,323.92-3.9,135.465-13.7,229.69-9.9,94.23-27.5,153.13-17.7,58.89-45.1,90.31-31.5,43.245-74.6,53c-28.9,6.56-70.7,9.82-125.7,9.82h-62.8q-82.5,0-127.6-9.82-45.15-9.75-76.6-53-23.55-31.38-41.2-90.31-17.7-58.89-29.4-153.13-11.85-94.23-15.8-229.69-3.9-135.45-3.9-323.92V2581.35Z"/>
  <path class="cls-5" d="M5551,798H26937"/>
  <path id="Shape_5_copy" data-name="Shape 5 copy" class="cls-6" d="M5551,4426H26937"/>
</svg>
