<svg xmlns="http://www.w3.org/2000/svg" width="585.393" height="853" viewBox="0 0 585.393 853">
  <path id="Union_7" data-name="Union 7" d="M0,752.3V638.159L175.676,739.983V853ZM338.341,481.824,190.294,567.391V455.109l395.1-228.567V338.772L438.667,422.1V705.562s-99.1,61.609-100.327,62.833a.011.011,0,0,1-.008,0C337.123,768.389,338.341,481.824,338.341,481.824ZM0,467.137V352.993L175.676,454.817V567.834ZM0,298.045V184.7L183.332,291.265l245.5-142.456,99.7,54.07-345.2,199.658ZM107,132V44L183.5,0,260,44v88l-76.5,44Z" fill="#1a82d0"/>
</svg>
