<svg width="39" height="12" viewBox="0 0 39 12" fill="none" xmlns="http://www.w3.org/2000/svg">
<path d="M7.524 8.376C7.428 8.448 7.292 8.528 7.116 8.616C6.948 8.696 6.748 8.772 6.516 8.844C6.284 8.916 6.024 8.976 5.736 9.024C5.456 9.072 5.156 9.096 4.836 9.096C4.156 9.096 3.544 8.98 3 8.748C2.464 8.508 2.008 8.188 1.632 7.788C1.256 7.388 0.968 6.924 0.768 6.396C0.568 5.868 0.468 5.308 0.468 4.716C0.468 4.06 0.584 3.456 0.816 2.904C1.056 2.352 1.38 1.876 1.788 1.476C2.196 1.076 2.672 0.763999 3.216 0.539999C3.768 0.316 4.352 0.204 4.968 0.204C5.2 0.204 5.436 0.22 5.676 0.252C5.916 0.284 6.14 0.328 6.348 0.383999C6.564 0.44 6.752 0.508 6.912 0.588C7.08 0.66 7.208 0.736 7.296 0.816C7.232 0.912 7.18 0.992 7.14 1.056C7.108 1.12 7.072 1.188 7.032 1.26C6.992 1.324 6.948 1.4 6.9 1.488C6.852 1.576 6.788 1.692 6.708 1.836C6.604 1.764 6.48 1.704 6.336 1.656C6.2 1.608 6.056 1.568 5.904 1.536C5.752 1.504 5.596 1.48 5.436 1.464C5.284 1.448 5.144 1.44 5.016 1.44C4.552 1.44 4.12 1.528 3.72 1.704C3.328 1.872 2.988 2.104 2.7 2.4C2.412 2.688 2.184 3.024 2.016 3.408C1.856 3.792 1.776 4.192 1.776 4.608C1.776 5.016 1.852 5.408 2.004 5.784C2.164 6.16 2.38 6.496 2.652 6.792C2.932 7.088 3.264 7.324 3.648 7.5C4.04 7.676 4.468 7.764 4.932 7.764C5.18 7.764 5.42 7.74 5.652 7.692C5.884 7.644 6.092 7.588 6.276 7.524C6.468 7.46 6.624 7.396 6.744 7.332C6.872 7.268 6.948 7.22 6.972 7.188L7.524 8.376ZM11.0738 5.172C10.8498 5.172 10.6338 5.204 10.4258 5.268C10.2178 5.324 10.0298 5.412 9.86175 5.532C9.70175 5.652 9.57375 5.804 9.47775 5.988C9.38175 6.164 9.33375 6.368 9.33375 6.6V9H8.31375V3.984H9.21375C9.22975 4.232 9.24175 4.46 9.24975 4.668C9.26575 4.868 9.28175 5.068 9.29775 5.268C9.40175 5.052 9.53775 4.856 9.70575 4.68C9.87375 4.504 10.0538 4.356 10.2458 4.236C10.4378 4.116 10.6258 4.024 10.8098 3.96C10.9938 3.888 11.1578 3.852 11.3018 3.852L11.0738 5.172ZM13.4203 11.412H12.3883C12.5003 11.18 12.6043 10.956 12.7003 10.74C12.8043 10.532 12.9043 10.316 13.0003 10.092C13.1043 9.876 13.2083 9.648 13.3123 9.408C13.4163 9.176 13.5323 8.924 13.6603 8.652C13.4763 8.292 13.2883 7.916 13.0963 7.524C12.9043 7.124 12.7123 6.724 12.5203 6.324C12.3283 5.924 12.1363 5.524 11.9443 5.124C11.7603 4.724 11.5763 4.344 11.3923 3.984H12.5083C12.7963 4.552 13.0323 5.032 13.2163 5.424C13.4083 5.816 13.5643 6.156 13.6843 6.444C13.8123 6.724 13.9123 6.964 13.9843 7.164C14.0643 7.364 14.1323 7.548 14.1883 7.716C14.2523 7.548 14.3203 7.364 14.3923 7.164C14.4723 6.964 14.5723 6.724 14.6923 6.444C14.8203 6.156 14.9763 5.816 15.1603 5.424C15.3523 5.032 15.5923 4.552 15.8803 3.984H16.9963L13.4203 11.412ZM22.0305 6.48C22.0305 6.248 21.9945 6.036 21.9225 5.844C21.8505 5.644 21.7465 5.472 21.6105 5.328C21.4745 5.184 21.3105 5.072 21.1185 4.992C20.9265 4.904 20.7105 4.86 20.4705 4.86C20.2305 4.86 20.0065 4.904 19.7985 4.992C19.5985 5.072 19.4265 5.184 19.2825 5.328C19.1385 5.472 19.0225 5.644 18.9345 5.844C18.8545 6.036 18.8145 6.248 18.8145 6.48C18.8145 6.712 18.8545 6.928 18.9345 7.128C19.0225 7.328 19.1385 7.5 19.2825 7.644C19.4265 7.788 19.5985 7.904 19.7985 7.992C20.0065 8.072 20.2305 8.112 20.4705 8.112C20.7105 8.112 20.9265 8.072 21.1185 7.992C21.3105 7.904 21.4745 7.788 21.6105 7.644C21.7465 7.492 21.8505 7.32 21.9225 7.128C21.9945 6.928 22.0305 6.712 22.0305 6.48ZM23.1465 6.504C23.1465 6.88 23.0825 7.228 22.9545 7.548C22.8265 7.868 22.6465 8.144 22.4145 8.376C22.1825 8.608 21.9025 8.792 21.5745 8.928C21.2545 9.056 20.9025 9.12 20.5185 9.12C20.3185 9.12 20.1265 9.096 19.9425 9.048C19.7665 9.008 19.6025 8.952 19.4505 8.88C19.2985 8.8 19.1665 8.716 19.0545 8.628C18.9425 8.532 18.8585 8.436 18.8025 8.34C18.8025 8.38 18.8025 8.424 18.8025 8.472C18.8105 8.512 18.8145 8.552 18.8145 8.592V11.412H17.7825V3.984H18.7785C18.7785 4.08 18.7825 4.2 18.7905 4.344C18.8065 4.48 18.8145 4.604 18.8145 4.716C18.8785 4.62 18.9625 4.524 19.0665 4.428C19.1785 4.324 19.3065 4.232 19.4505 4.152C19.6025 4.064 19.7705 3.992 19.9545 3.936C20.1385 3.88 20.3425 3.852 20.5665 3.852C20.9505 3.852 21.2985 3.916 21.6105 4.044C21.9305 4.164 22.2025 4.34 22.4265 4.572C22.6585 4.796 22.8345 5.072 22.9545 5.4C23.0825 5.728 23.1465 6.096 23.1465 6.504ZM24.6129 1.776H25.6329V3.996H26.9769V4.908H25.6329V9H24.6129V4.908H23.7129V3.996H24.6129V1.776ZM27.372 6.54C27.372 6.172 27.44 5.828 27.576 5.508C27.72 5.18 27.912 4.896 28.152 4.656C28.392 4.408 28.668 4.212 28.98 4.068C29.3 3.924 29.64 3.852 30 3.852C30.24 3.852 30.46 3.884 30.66 3.948C30.86 4.004 31.032 4.076 31.176 4.164C31.32 4.252 31.436 4.344 31.524 4.44C31.612 4.536 31.672 4.62 31.704 4.692L31.752 3.984H32.736V9H31.704V8.364C31.664 8.428 31.6 8.504 31.512 8.592C31.424 8.68 31.308 8.764 31.164 8.844C31.028 8.916 30.864 8.98 30.672 9.036C30.48 9.092 30.26 9.12 30.012 9.12C29.628 9.12 29.272 9.052 28.944 8.916C28.624 8.772 28.348 8.584 28.116 8.352C27.884 8.112 27.7 7.836 27.564 7.524C27.436 7.212 27.372 6.884 27.372 6.54ZM28.404 6.48C28.404 6.712 28.444 6.928 28.524 7.128C28.612 7.328 28.728 7.5 28.872 7.644C29.016 7.788 29.188 7.904 29.388 7.992C29.588 8.072 29.808 8.112 30.048 8.112C30.288 8.112 30.508 8.072 30.708 7.992C30.916 7.904 31.092 7.788 31.236 7.644C31.388 7.492 31.504 7.32 31.584 7.128C31.664 6.928 31.704 6.712 31.704 6.48C31.704 6.248 31.664 6.036 31.584 5.844C31.504 5.644 31.388 5.472 31.236 5.328C31.092 5.184 30.916 5.072 30.708 4.992C30.508 4.904 30.288 4.86 30.048 4.86C29.808 4.86 29.588 4.904 29.388 4.992C29.188 5.072 29.016 5.184 28.872 5.328C28.728 5.472 28.612 5.644 28.524 5.844C28.444 6.036 28.404 6.248 28.404 6.48ZM35.425 6.348C35.145 5.948 34.853 5.552 34.549 5.16C34.253 4.768 33.969 4.376 33.697 3.984H34.957C35.053 4.144 35.145 4.288 35.233 4.416C35.329 4.544 35.421 4.668 35.509 4.788C35.605 4.908 35.697 5.032 35.785 5.16C35.881 5.28 35.981 5.416 36.085 5.568C36.285 5.272 36.473 5.012 36.649 4.788C36.825 4.556 37.017 4.288 37.225 3.984H38.365C38.221 4.208 38.081 4.416 37.945 4.608C37.809 4.792 37.673 4.98 37.537 5.172C37.401 5.356 37.261 5.548 37.117 5.748C36.981 5.94 36.837 6.156 36.685 6.396C36.829 6.588 36.981 6.796 37.141 7.02C37.309 7.244 37.477 7.472 37.645 7.704C37.813 7.928 37.977 8.152 38.137 8.376C38.297 8.6 38.445 8.808 38.581 9H37.273C37.049 8.688 36.829 8.4 36.613 8.136C36.397 7.872 36.177 7.588 35.953 7.284C35.745 7.588 35.541 7.872 35.341 8.136C35.141 8.4 34.937 8.688 34.729 9H33.589C33.893 8.544 34.201 8.1 34.513 7.668C34.825 7.228 35.129 6.788 35.425 6.348Z" fill="#2B406A"/>
</svg>
