<svg xmlns="http://www.w3.org/2000/svg" width="53" height="53" viewBox="0 0 53 53">
  <g id="Group_12887" data-name="Group 12887" transform="translate(-25 -48)">
    <circle id="Ellipse_1237" data-name="Ellipse 1237" cx="26.5" cy="26.5" r="26.5" transform="translate(25 48)" fill="rgba(255,255,255,0.2)"/>
    <g id="add-user-svgrepo-com_1_" data-name="add-user-svgrepo-com (1)" transform="translate(40 63)">
      <path id="Ellipse_1238" data-name="Ellipse 1238" d="M5.942-1A6.942,6.942,0,1,1-1,5.942,6.95,6.95,0,0,1,5.942-1Zm0,11.884A4.942,4.942,0,1,0,1,5.942,4.948,4.948,0,0,0,5.942,10.884Z" transform="translate(10.951 10.212)" fill="#fff"/>
      <path id="Line_132" data-name="Line 132" d="M0,6.093a1,1,0,0,1-1-1V0A1,1,0,0,1,0-1,1,1,0,0,1,1,0V5.093A1,1,0,0,1,0,6.093Z" transform="translate(16.893 13.608)" fill="#fff"/>
      <path id="Line_133" data-name="Line 133" d="M5.093,1H0A1,1,0,0,1-1,0,1,1,0,0,1,0-1H5.093a1,1,0,0,1,1,1A1,1,0,0,1,5.093,1Z" transform="translate(14.346 16.155)" fill="#fff"/>
      <path id="Path_10006" data-name="Path 10006" d="M19.993,26.066H3.609A1.493,1.493,0,0,1,2.1,24.557a1,1,0,0,1,.026-.225,7.115,7.115,0,0,1,5.044-5.325A3.284,3.284,0,0,0,9.615,16.4a6.517,6.517,0,0,1-2.507-5.081V8.089A4.439,4.439,0,0,1,8.893,4.468a3.662,3.662,0,0,1,2.371-.762A5.549,5.549,0,0,1,15.933,2h.007a5.522,5.522,0,0,1,3.629,1.973,6,6,0,0,1,1.424,3.86V9.786a1,1,0,0,1-1,1,.707.707,0,0,0-.7.7,6.888,6.888,0,0,1-.488,2.473,1,1,0,1,1-1.873-.7,4.9,4.9,0,0,0,.361-1.771,2.7,2.7,0,0,1,1.7-2.506V7.834A3.866,3.866,0,0,0,15.73,3.99a3.489,3.489,0,0,0-3.25,1.379,1,1,0,0,1-1.049.379,1.527,1.527,0,0,0-1.391.358,2.485,2.485,0,0,0-.932,1.982v3.226a4.446,4.446,0,0,0,2.068,3.731,1,1,0,0,1,.479.853A5.058,5.058,0,0,1,10.521,19.1a5.44,5.44,0,0,1-2.829,1.833,5.073,5.073,0,0,0-3.4,3.129h15.7a1,1,0,0,1,0,2Z" transform="translate(-3.1 -2.97)" fill="#fff"/>
    </g>
  </g>
</svg>
