<svg id="Group_12443" data-name="Group 12443" xmlns="http://www.w3.org/2000/svg" width="51" height="53" viewBox="0 0 51 53">
  <ellipse id="Ellipse_1239" data-name="Ellipse 1239" cx="25.5" cy="26.5" rx="25.5" ry="26.5" fill="rgba(174,230,249,0.6)"/>
  <g id="users-svgrepo-com" transform="translate(14 15)">
    <path id="Path_10001" data-name="Path 10001" d="M22.839,17.7l-.035-.043a2.621,2.621,0,0,0-1.067-.736l-.082-.026a11.73,11.73,0,0,0-1.207-.5c-.116-.04-.213-.083-.291-.118-.613-.316-.683-.5-.693-.529l-.028-.068.024-.061a4.691,4.691,0,0,0,.9-1.935l.018-.044a1.265,1.265,0,0,0,.238-.579,1.874,1.874,0,0,0,.021-1.232l-.012-.025.006-.028a3.482,3.482,0,0,0-.46-2.958,3.058,3.058,0,0,0-1.526-1l-.451-.161a5.993,5.993,0,0,0-1.284-.3.664.664,0,0,0-.157.021L16.7,7.4a.631.631,0,0,0-.1-.008,1.546,1.546,0,0,0-.515.114,3.712,3.712,0,0,0-2,2.108,4.515,4.515,0,0,0-.028,2.06l0,.032-.019.027A1.542,1.542,0,0,0,13.982,13a1.353,1.353,0,0,0,.239.615l.02.043a4.6,4.6,0,0,0,.826,1.914l.034.047-.032.047a.267.267,0,0,0-.036.08c-.065.194-.563.5-1.334.824-.172-.065-.292-.106-.335-.121-.156-.055-.287-.113-.392-.161-.816-.421-.924-.666-.94-.722l-.043-.1.038-.093a6.318,6.318,0,0,0,1.207-2.6l.025-.06a1.666,1.666,0,0,0,.318-.774,2.494,2.494,0,0,0,.03-1.648l-.019-.04.01-.043a4.663,4.663,0,0,0-.617-3.968A4.088,4.088,0,0,0,10.936,4.9l-.607-.218a8.1,8.1,0,0,0-1.725-.4.8.8,0,0,0-.209.029l-.081.014a1.736,1.736,0,0,0-.825.14A4.981,4.981,0,0,0,4.8,7.3a6.051,6.051,0,0,0-.037,2.763l.007.052-.031.043a2.055,2.055,0,0,0-.06,1.7,1.8,1.8,0,0,0,.32.823l.028.061a6.164,6.164,0,0,0,1.108,2.573l.053.073-.051.077a.3.3,0,0,0-.045.1c-.142.422-1.721,1.159-3.105,1.6a3.261,3.261,0,0,0-1.436,1.037C.18,20.334.006,24.9,0,25.1c.021,1.188.538,1.43.637,1.465l.087.04a25.858,25.858,0,0,0,7.966,1.68l.155,0c.148,0,.3-.008.439-.016H9.3l.046,0a.386.386,0,0,0,.1.014h.021c.2-.011,4.961-.293,7.932-1.686.162-.045.686-.28.733-1.435a18.008,18.008,0,0,0,5.314-1.207c.127-.035.545-.22.559-1.158C23.981,22.441,23.815,19.216,22.839,17.7ZM6.59,16.043l.083-.08.082.08a3.379,3.379,0,0,0,2.265,1.108,3.491,3.491,0,0,0,2.3-1.01l.062-.055.161.082a2.984,2.984,0,0,0,.492.373l.152.077-.016.016.058.037c.139.085.286.169.455.257a4.906,4.906,0,0,0,.472.192,15.171,15.171,0,0,1,1.582.655l.148.048a2.7,2.7,0,0,1,1.13.768c1.219,1.89,1.424,6.016,1.444,6.478-.009.645-.185.812-.231.844a25.1,25.1,0,0,1-7.658,1.663H9.545l-.023-.007a.284.284,0,0,0-.089-.012H9.4c-.218.016-.4.023-.568.023H8.705a25.9,25.9,0,0,1-7.8-1.66C.852,25.9.684,25.7.671,25.1c0-.044.147-4.5,1.426-6.483A2.652,2.652,0,0,1,3.2,17.837a11.614,11.614,0,0,0,2.95-1.345.608.608,0,0,0,.106-.1C6.319,16.326,6.445,16.185,6.59,16.043ZM15.1,17.158l-.113-.034c-.186-.089-.381-.178-.582-.264a4.213,4.213,0,0,0,.69-.407.425.425,0,0,0,.082-.075c.063-.07.147-.165.245-.261l.053-.05.05.051a2.528,2.528,0,0,0,1.691.827,2.6,2.6,0,0,0,1.716-.753l.039-.034.11.056a2.142,2.142,0,0,0,.365.278l.1.047-.012.012.06.037c.1.065.215.127.34.191s.237.1.352.144a10.989,10.989,0,0,1,1.175.486l.109.035a1.978,1.978,0,0,1,.831.566c.909,1.408,1.056,4.461,1.07,4.8-.006.472-.132.593-.163.614a17.6,17.6,0,0,1-5.2,1.2c-.093-1.4-.424-4.7-1.529-6.418l-.047-.059A3.524,3.524,0,0,0,15.1,17.158Zm-.64-5.1.019-.024a.287.287,0,0,0,.113-.274,4.467,4.467,0,0,1-.026-1.966,3.129,3.129,0,0,1,1.707-1.778,1.232,1.232,0,0,1,.222-.061l.027-.007.17-.009v.012l.051,0a.748.748,0,0,0,.1-.015l.057-.013a6.25,6.25,0,0,1,1.127.268l.455.163a2.508,2.508,0,0,1,1.279.827,3,3,0,0,1,.32,2.607.286.286,0,0,0,.036.224l.037.05c.047.065.089.325-.055.885a.737.737,0,0,1-.174.4.276.276,0,0,0-.067.146c-.224,1.374-1.4,2.91-2.642,2.91-1.054,0-2.255-1.414-2.471-2.91a.3.3,0,0,0-.07-.152.833.833,0,0,1-.18-.444A1.29,1.29,0,0,1,14.461,12.058ZM5.292,10.578l.029-.034a.365.365,0,0,0,.145-.351,5.982,5.982,0,0,1-.034-2.657A4.239,4.239,0,0,1,7.74,5.129a1.618,1.618,0,0,1,.3-.083l.033-.008.251-.014v.016l.054-.005a1.425,1.425,0,0,0,.157-.025L8.595,5a8.248,8.248,0,0,1,1.524.362l.611.219A3.411,3.411,0,0,1,12.461,6.7a4.059,4.059,0,0,1,.436,3.527.358.358,0,0,0,.044.287l.05.067c.082.114.113.5-.07,1.207a1,1,0,0,1-.24.544.369.369,0,0,0-.085.186c-.3,1.858-1.9,3.935-3.576,3.935-1.426,0-3.053-1.912-3.346-3.934a.363.363,0,0,0-.089-.2,1.132,1.132,0,0,1-.247-.6A1.756,1.756,0,0,1,5.292,10.578Z" transform="translate(0 -4.289)" fill="none" stroke="#2299c2" stroke-width="1"/>
  </g>
</svg>
