<svg xmlns="http://www.w3.org/2000/svg" width="23.021" height="22.894" viewBox="0 0 23.021 22.894">
  <path id="Icon_awesome-upload" data-name="Icon awesome-upload" d="M13.309,17.175h-3.6A1.074,1.074,0,0,1,8.633,16.1V8.588H4.69a.892.892,0,0,1-.634-1.525L10.895.257a.874.874,0,0,1,1.227,0l6.843,6.807a.892.892,0,0,1-.634,1.525H14.388V16.1A1.074,1.074,0,0,1,13.309,17.175Zm9.712-.358v5.009A1.074,1.074,0,0,1,21.942,22.9H1.079A1.074,1.074,0,0,1,0,21.826V16.817a1.074,1.074,0,0,1,1.079-1.073H7.194V16.1a2.513,2.513,0,0,0,2.518,2.5h3.6a2.513,2.513,0,0,0,2.518-2.5v-.358h6.115A1.074,1.074,0,0,1,23.021,16.817Zm-5.575,3.935a.9.9,0,1,0-.9.894A.9.9,0,0,0,17.446,20.753Zm2.878,0a.9.9,0,1,0-.9.894A.9.9,0,0,0,20.323,20.753Z" transform="translate(0 -0.005)" fill="#134675"/>
</svg>
