<svg id="connect" xmlns="http://www.w3.org/2000/svg" width="26" height="26" viewBox="0 0 26 26">
  <rect id="Rectangle_3259" data-name="Rectangle 3259" width="26" height="26" fill="#fff" opacity="0"/>
  <path id="Exclusion_2" data-name="Exclusion 2" d="M21.723,0H8.061A2.292,2.292,0,0,0,5.784,2.3V8.554H4.63V6.8a.587.587,0,0,0-.33-.526.569.569,0,0,0-.239-.052.576.576,0,0,0-.369.134L.22,9.145a.573.573,0,0,0-.023.883l3.472,3.06a.576.576,0,0,0,.382.146.569.569,0,0,0,.238-.052.586.586,0,0,0,.34-.532V10.894H5.784V8.554H9.26a.582.582,0,0,1,.578.585v1.17a.583.583,0,0,1-.578.585H5.784v2.915a2.728,2.728,0,0,0,2.254,2.628l11.432,1.65a2.211,2.211,0,0,0,.314.023,1.926,1.926,0,0,0,1.939-2V14.384H20.015V15.4L7.492,14.384v-.575H21.723A2.292,2.292,0,0,0,24,11.508V2.3A2.292,2.292,0,0,0,21.723,0ZM6.945,6.215a.583.583,0,0,1-.579-.585V4.459a.583.583,0,0,1,.579-.585h4.63V2.119a.587.587,0,0,1,.34-.533.576.576,0,0,1,.621.094l3.472,3.06a.573.573,0,0,1-.023.883L12.513,8.414a.578.578,0,0,1-.369.134A.568.568,0,0,1,11.9,8.5a.59.59,0,0,1-.33-.527V6.215ZM20.016,9.2a1.73,1.73,0,0,1-1.208-2.947,1.688,1.688,0,0,1,1.207-.507,1.727,1.727,0,0,1,0,3.454Z" transform="translate(25 22.109) rotate(180)" fill="#134675"/>
</svg>
