<svg xmlns="http://www.w3.org/2000/svg" width="26" height="26" viewBox="0 0 26 26">
  <g id="report" transform="translate(12688 6762)">
    <g id="Rectangle_3261" data-name="Rectangle 3261" transform="translate(-12688 -6762)" fill="#fff" stroke="#707070" stroke-width="1" opacity="0">
      <rect width="26" height="26" stroke="none"/>
      <rect x="0.5" y="0.5" width="25" height="25" fill="none"/>
    </g>
    <g id="Group_12886" data-name="Group 12886" transform="translate(-12686 -6760)">
      <path id="Path_9887" data-name="Path 9887" d="M146.243,50.393a.2.2,0,0,0-.032-.137h0l-.006-.009h0l-.006-.009-.006-.009-.006-.007a0,0,0,0,0,0,0l-.625-.647q-.723-.752-1.447-1.5-.815-.845-1.626-1.687l-1.164-1.206c-.068-.071-.134-.146-.207-.214a.343.343,0,0,0-.275-.066H131.6a1.988,1.988,0,0,0-1.045.155,1.244,1.244,0,0,0-.6,1.067V64.206c0,.038,0,.073,0,.11a1.21,1.21,0,0,0,1.025,1.2,4.513,4.513,0,0,0,.6.011h13.091a2.348,2.348,0,0,0,.757-.057,1.231,1.231,0,0,0,.816-1.16V50.393Zm-3.215,11.27h-9.857a.442.442,0,0,1,0-.883h.665V56.654a.889.889,0,0,1,.04-.382c.132-.272.458-.219.7-.219h.9c.092,0,.185,0,.277,0a.177.177,0,0,1,.034,0l.019,0,.019,0,.013,0a.172.172,0,0,1,.032.009h0a.373.373,0,0,1,.045.018h0a.389.389,0,0,1,.213.269.319.319,0,0,1,.019.068s0,.007,0,.009v0a.086.086,0,0,0,0,.022s0,0,0,.007v4.307h.874v-.024c0-.038,0-.077,0-.115s0-.08,0-.119c0-.119.006-.239.009-.356,0-.033,0-.068,0-.1s0-.055,0-.084V54.013c0-.055,0-.108,0-.163a.6.6,0,0,1,0-.062c0-.013,0-.024.006-.035l.013-.046.006-.015.006-.013.019-.04s0-.007,0-.009a.136.136,0,0,1,.015-.022.368.368,0,0,1,.258-.157l.036,0c.038,0,.079,0,.117,0h.028c.215,0,.431,0,.646.007h.684c.032,0,.062,0,.094,0a.368.368,0,0,1,.113.022l.009,0a.3.3,0,0,1,.075.038.223.223,0,0,1,.023.018h0l.023.02.011.011.011.011a.4.4,0,0,1,.036.049s.006.009.009.013a.256.256,0,0,1,.021.042.109.109,0,0,1,.006.015.3.3,0,0,1,.019.062l.006.022s0,.011,0,.015a.253.253,0,0,1,0,.042V60.78h.9c0-.283.013-.565.013-.848V55.018a.6.6,0,0,1,.011-.163.4.4,0,0,1,.435-.28h1.435a.427.427,0,0,1,.315.119c.011.011.021.024.032.038a.332.332,0,0,1,.038.066h0a.82.82,0,0,1,.028.077.23.23,0,0,1,.011.055V60.78h.452a.443.443,0,0,1,.426.442A.438.438,0,0,1,143.028,61.663Zm-1.059-11.507h-.281l-.053,0-.077-.018c-.021-.007-.115-.027-.055-.018l.017,0a.163.163,0,0,1-.03-.011c-.021-.011-.04-.022-.062-.035l-.032-.022c0-.007-.058-.051-.068-.06l-.04-.04a.046.046,0,0,0-.009-.013l-.006-.013c-.009-.011-.015-.024-.023-.035s-.021-.035-.034-.06h0a.106.106,0,0,1-.006-.02.177.177,0,0,0-.011-.031s0-.007,0-.011c-.009-.027,0-.053-.021-.08h0v-.029h0a.19.19,0,0,1,0-.022.1.1,0,0,0,0,.018c0-.015,0-.029,0-.038,0-.038,0-.073,0-.11v-2.2c0-.3,0-.6.006-.894l.989,1.025,2.624,2.719Z" transform="translate(-124.046 -43.862)" fill="#134675"/>
      <g id="Subtraction_8" data-name="Subtraction 8" transform="translate(3)" fill="#fff">
        <path d="M 1.997267842292786 22.29339790344238 C 1.171456098556519 22.2920036315918 0.4999985694885254 21.61973190307617 0.4999985694885254 20.79360008239746 L 0.4999985694885254 1.999799847602844 C 0.4999985694885254 1.173567056655884 1.171561598777771 0.5012321472167969 1.997511982917786 0.5000017285346985 C 1.684371113777161 0.9182820320129395 1.499798536300659 1.437761068344116 1.499798536300659 1.999799847602844 L 1.499798536300659 20.79360008239746 C 1.499798536300659 21.35597229003906 1.684248089790344 21.87537574768066 1.997267842292786 22.29339790344238 Z" stroke="none"/>
        <path d="M 3.909558534622192 22.79339981079102 L 1.999798536300659 22.79339981079102 C 0.8971085548400879 22.79339981079102 -1.420783974026563e-06 21.89628982543945 -1.420783974026563e-06 20.79360008239746 L -1.420783974026563e-06 1.999799847602844 C -1.420783974026563e-06 0.8971099257469177 0.8971085548400879 -9.460449490461542e-08 1.999798536300659 -9.460449490461542e-08 L 3.909558534622192 -9.460449490461542e-08 C 2.838688611984253 0.04964990541338921 1.999798536300659 0.9271898865699768 1.999798536300659 1.999799847602844 L 1.999798536300659 20.79360008239746 C 1.999798536300659 21.86620903015137 2.838688611984253 22.74374961853027 3.909598588943481 22.7913990020752 L 3.909558534622192 22.79339981079102 Z" stroke="none" fill="#134675"/>
      </g>
      <g id="Subtraction_9" data-name="Subtraction 9" fill="#fff">
        <path d="M 1.997267842292786 22.29339790344238 C 1.171456098556519 22.2920036315918 0.4999985694885254 21.61973190307617 0.4999985694885254 20.79360008239746 L 0.4999985694885254 1.999799847602844 C 0.4999985694885254 1.173567056655884 1.171561598777771 0.5012321472167969 1.997511982917786 0.5000017285346985 C 1.684371113777161 0.9182820320129395 1.499798536300659 1.437761068344116 1.499798536300659 1.999799847602844 L 1.499798536300659 20.79360008239746 C 1.499798536300659 21.35597229003906 1.684248089790344 21.87537574768066 1.997267842292786 22.29339790344238 Z" stroke="none"/>
        <path d="M 3.909558534622192 22.79339981079102 L 1.999798536300659 22.79339981079102 C 0.8971085548400879 22.79339981079102 -1.420783974026563e-06 21.89628982543945 -1.420783974026563e-06 20.79360008239746 L -1.420783974026563e-06 1.999799847602844 C -1.420783974026563e-06 0.8971099257469177 0.8971085548400879 -9.460449490461542e-08 1.999798536300659 -9.460449490461542e-08 L 3.909558534622192 -9.460449490461542e-08 C 2.838688611984253 0.04964990541338921 1.999798536300659 0.9271898865699768 1.999798536300659 1.999799847602844 L 1.999798536300659 20.79360008239746 C 1.999798536300659 21.86620903015137 2.838688611984253 22.74374961853027 3.909598588943481 22.7913990020752 L 3.909558534622192 22.79339981079102 Z" stroke="none" fill="#134675"/>
      </g>
    </g>
  </g>
</svg>
