<svg xmlns="http://www.w3.org/2000/svg" width="26" height="26" viewBox="0 0 26 26">
  <g id="transaction" transform="translate(12688 6795)">
    <g id="Rectangle_3260" data-name="Rectangle 3260" transform="translate(-12688 -6795)" fill="#fff" stroke="#707070" stroke-width="1" opacity="0">
      <rect width="26" height="26" stroke="none"/>
      <rect x="0.5" y="0.5" width="25" height="25" fill="none"/>
    </g>
    <g id="Group_12885" data-name="Group 12885" transform="translate(-12687.625 -6791.715)">
      <ellipse id="Ellipse_1192" data-name="Ellipse 1192" cx="3.367" cy="3.488" rx="3.367" ry="3.488" transform="translate(14.308 7.848)" fill="#134675"/>
      <path id="Path_9888" data-name="Path 9888" d="M18.675,9A7.715,7.715,0,0,0,11.1,16.848,7.715,7.715,0,0,0,18.675,24.7a7.715,7.715,0,0,0,7.575-7.848A7.715,7.715,0,0,0,18.675,9Zm0,13.08a5.144,5.144,0,0,1-5.05-5.232,5.053,5.053,0,1,1,10.1,0A5.144,5.144,0,0,1,18.675,22.08ZM9.518,18.217a9.281,9.281,0,0,1-.1-1.369A10.41,10.41,0,0,1,9.534,15.3c-.623.061-1.229.087-1.8.087A16.418,16.418,0,0,1,1,14.075v2.616c.53.61,3.19,1.587,6.733,1.587a16.665,16.665,0,0,0,1.784-.061ZM7.733,20.049A16.418,16.418,0,0,1,1,18.732V22.08C1,24.627,7.043,24.7,7.733,24.7a16.53,16.53,0,0,0,4.8-.68,9.623,9.623,0,0,1-2.626-4.1,19.01,19.01,0,0,1-2.172.131Z" transform="translate(-1 -5.512)" fill="#134675"/>
      <path id="Path_9889" data-name="Path 9889" d="M10,13a9.488,9.488,0,0,1,4.469-5.206V7.616C14.467,5.07,8.424,5,7.733,5S1,5.07,1,7.616v3.933c.53.61,3.19,1.587,6.733,1.587A18.286,18.286,0,0,0,10,13Z" transform="translate(-1 -5)" fill="#134675"/>
    </g>
  </g>
</svg>
