<svg xmlns="http://www.w3.org/2000/svg" xmlns:xlink="http://www.w3.org/1999/xlink" width="66" height="66" viewBox="0 0 66 66">
  <defs>
    <linearGradient id="linear-gradient" y1="0.5" x2="1" y2="0.5" gradientUnits="objectBoundingBox">
      <stop offset="0" stop-color="#fbe67b"/>
      <stop offset="1" stop-color="#f4c323"/>
    </linearGradient>
    <linearGradient id="linear-gradient-2" x1="1" x2="0" xlink:href="#linear-gradient"/>
  </defs>
  <g id="Group_12718" data-name="Group 12718" transform="translate(-0.127 0.001)">
    <g id="Subtraction_13" data-name="Subtraction 13" transform="translate(0.127 -0.001)" fill="url(#linear-gradient)">
      <path d="M 33 65.75 C 28.57842063903809 65.75 24.28931045532227 64.88408660888672 20.25181007385254 63.17633819580078 C 16.35198974609375 61.52680969238281 12.84955978393555 59.16532135009766 9.841819763183594 56.1574592590332 C 6.834149837493896 53.149658203125 4.472809791564941 49.64720153808594 2.823390007019043 45.74737167358398 C 1.115810036659241 41.71001815795898 0.25 37.42118835449219 0.25 33 C 0.25 28.57835960388184 1.115810036659241 24.28924942016602 2.823390007019043 20.25180053710938 C 4.472789764404297 16.35193061828613 6.834129810333252 12.84951019287109 9.841819763183594 9.841819763183594 C 12.84951019287109 6.834129810333252 16.35193061828613 4.472789764404297 20.25180053710938 2.823390007019043 C 24.28924942016602 1.115810036659241 28.57835960388184 0.25 33 0.25 C 37.42118835449219 0.25 41.71001815795898 1.115810036659241 45.74737167358398 2.823390007019043 C 49.64720153808594 4.472809791564941 53.149658203125 6.834149837493896 56.1574592590332 9.841819763183594 C 59.16532135009766 12.84955978393555 61.52680969238281 16.35198974609375 63.17633819580078 20.25181007385254 C 64.88408660888672 24.28931045532227 65.75 28.57842063903809 65.75 33 C 65.75 37.42111968994141 64.88408660888672 41.7099609375 63.17633819580078 45.74737167358398 C 61.52679061889648 49.64714813232422 59.16529846191406 53.14960861206055 56.15745162963867 56.15745162963867 C 53.14960861206055 59.16529846191406 49.64714813232422 61.52679061889648 45.74737167358398 63.17633819580078 C 41.7099609375 64.88408660888672 37.42111968994141 65.75 33 65.75 Z" stroke="none"/>
      <path d="M 33 0.5 C 28.61199951171875 0.5 24.35565185546875 1.359169006347656 20.34917831420898 3.05364990234375 C 16.47911834716797 4.690441131591797 13.00339889526367 7.033779144287109 10.01858901977539 10.01858901977539 C 7.033779144287109 13.00339889526367 4.690441131591797 16.47911834716797 3.05364990234375 20.34917831420898 C 1.359169006347656 24.35565185546875 0.5 28.61199951171875 0.5 33 C 0.5 37.38755035400391 1.359169006347656 41.64361953735352 3.05364990234375 45.64999008178711 C 4.690460205078125 49.52001953125 7.033809661865234 52.99576950073242 10.01860046386719 55.98068237304688 C 13.00345993041992 58.96567153930664 16.47917938232422 61.30916976928711 20.34920120239258 62.94609069824219 C 24.35572052001953 64.64073944091797 28.612060546875 65.5 33 65.5 C 37.38748168945312 65.5 41.64355087280273 64.64073944091797 45.64997100830078 62.94609069824219 C 49.51995849609375 61.30915069580078 52.99571228027344 58.96564102172852 55.98068237304688 55.98068237304688 C 58.96564102172852 52.99571228027344 61.30915069580078 49.51995849609375 62.94609069824219 45.64997100830078 C 64.64073944091797 41.64355087280273 65.5 37.38748168945312 65.5 33 C 65.5 28.612060546875 64.64073944091797 24.35572052001953 62.94609069824219 20.34920120239258 C 61.30916976928711 16.47917938232422 58.96567153930664 13.00345993041992 55.98068237304688 10.01860046386719 C 52.99576950073242 7.033809661865234 49.52001953125 4.690460205078125 45.64999008178711 3.05364990234375 C 41.64361953735352 1.359169006347656 37.38755035400391 0.5 33 0.5 M 33 0 C 51.224609375 0 66 14.77344131469727 66 33 C 66 51.224609375 51.224609375 66 33 66 C 14.77344131469727 66 0 51.224609375 0 33 C 0 14.77344131469727 14.77344131469727 0 33 0 Z" stroke="none" fill="#e98d24"/>
    </g>
    <g id="Ellipse_1248" data-name="Ellipse 1248" transform="translate(9.127 8.999)" stroke="#e98d24" stroke-width="0.5" fill="url(#linear-gradient-2)">
      <circle cx="24" cy="24" r="24" stroke="none"/>
      <circle cx="24" cy="24" r="23.75" fill="none"/>
    </g>
    <path id="Icon_metro-dollar2" data-name="Icon metro-dollar2" d="M26.39,23.074a6.7,6.7,0,0,1-1.752,4.641,7.564,7.564,0,0,1-4.553,2.4V33.2a.543.543,0,0,1-.564.564H17.144a.571.571,0,0,1-.564-.564V30.119a11.1,11.1,0,0,1-2.246-.546,10.816,10.816,0,0,1-3.091-1.629,10.037,10.037,0,0,1-.819-.66q-.22-.211-.308-.317a.535.535,0,0,1-.035-.722L11.9,23.867a.548.548,0,0,1,.405-.211.436.436,0,0,1,.423.159l.035.035a9.2,9.2,0,0,0,4.28,2.2,6.152,6.152,0,0,0,1.3.141,4.27,4.27,0,0,0,2.51-.757,2.467,2.467,0,0,0,1.083-2.149,1.786,1.786,0,0,0-.264-.933,3.3,3.3,0,0,0-.59-.74,4.834,4.834,0,0,0-1.03-.66q-.7-.361-1.162-.564t-1.409-.572q-.687-.282-1.083-.44t-1.083-.467q-.687-.308-1.1-.546t-1-.625a6.2,6.2,0,0,1-.942-.749,10.977,10.977,0,0,1-.766-.863,4.309,4.309,0,0,1-.625-1.022,7.064,7.064,0,0,1-.37-1.171,6.113,6.113,0,0,1-.15-1.374A6.022,6.022,0,0,1,12.089,8.3a8.059,8.059,0,0,1,4.491-2.36V2.767a.572.572,0,0,1,.564-.564h2.378a.543.543,0,0,1,.564.564v3.1a9.8,9.8,0,0,1,1.946.405,11.284,11.284,0,0,1,1.532.59,8.486,8.486,0,0,1,1.118.66q.528.37.687.511t.264.247a.51.51,0,0,1,.088.669L24.295,11.52a.48.48,0,0,1-.405.282.561.561,0,0,1-.476-.123q-.053-.053-.255-.211T22.472,11a9.089,9.089,0,0,0-1.03-.564,7.866,7.866,0,0,0-1.312-.458,5.876,5.876,0,0,0-1.506-.2,4.577,4.577,0,0,0-2.73.757,2.368,2.368,0,0,0-.907,2.8,1.982,1.982,0,0,0,.52.731,7.761,7.761,0,0,0,.7.581,6.2,6.2,0,0,0,.986.546q.66.308,1.066.476t1.233.484q.933.352,1.427.555t1.339.616a10.64,10.64,0,0,1,1.33.749,11.245,11.245,0,0,1,1.092.881,4.56,4.56,0,0,1,.933,1.118,6.383,6.383,0,0,1,.555,1.347,5.811,5.811,0,0,1,.229,1.656Z" transform="translate(14.534 14.635)" fill="#e98d24"/>
  </g>
</svg>
