<svg xmlns="http://www.w3.org/2000/svg" xmlns:xlink="http://www.w3.org/1999/xlink" width="66" height="66" viewBox="0 0 66 66">
  <defs>
    <linearGradient id="linear-gradient" y1="0.5" x2="1" y2="0.5" gradientUnits="objectBoundingBox">
      <stop offset="0" stop-color="#fbe67b"/>
      <stop offset="1" stop-color="#f4c323"/>
    </linearGradient>
  </defs>
  <g id="Group_12718" data-name="Group 12718" transform="translate(0.439 -0.002)">
    <g id="Subtraction_13" data-name="Subtraction 13" transform="translate(-0.438 0.001)" fill="url(#linear-gradient)">
      <path d="M 32.99850463867188 65.75149536132812 C 28.57717514038086 65.75149536132812 24.2882251739502 64.88562774658203 20.25080490112305 63.17794418334961 C 16.35098457336426 61.5284538269043 12.84854507446289 59.16702651977539 9.840754508972168 56.15924453735352 C 6.832974433898926 53.15145492553711 4.471544742584229 49.64901351928711 2.822054624557495 45.74919509887695 C 1.11437463760376 41.71177673339844 0.248504638671875 37.42282485961914 0.248504638671875 33.00149536132812 C 0.248504638671875 28.58016586303711 1.11437463760376 24.29121589660645 2.822054624557495 20.2537956237793 C 4.471544742584229 16.35398483276367 6.832974433898926 12.85153579711914 9.840754508972168 9.843755722045898 C 12.84854507446289 6.835975170135498 16.35098457336426 4.474545478820801 20.25080490112305 2.825055360794067 C 24.2882251739502 1.117375373840332 28.57717514038086 0.2515053749084473 32.99850463867188 0.2515053749084473 C 37.41983413696289 0.2515053749084473 41.70878601074219 1.117375373840332 45.7462043762207 2.825055360794067 C 49.64602279663086 4.474545478820801 53.14846420288086 6.835975170135498 56.15624618530273 9.843755722045898 C 59.16403579711914 12.85153579711914 61.52546310424805 16.35398483276367 63.17494583129883 20.2537956237793 C 64.88263702392578 24.29121589660645 65.74850463867188 28.58016586303711 65.74850463867188 33.00149536132812 C 65.74850463867188 37.42282485961914 64.88263702392578 41.71177673339844 63.17494583129883 45.74919509887695 C 61.52546310424805 49.64901351928711 59.16403579711914 53.15145492553711 56.15624618530273 56.15924453735352 C 53.14846420288086 59.16702651977539 49.64602279663086 61.5284538269043 45.7462043762207 63.17794418334961 C 41.70878601074219 64.88562774658203 37.41983413696289 65.75149536132812 32.99850463867188 65.75149536132812 Z" stroke="none"/>
      <path d="M 32.99850463867188 0.501495361328125 C 28.61081314086914 0.501495361328125 24.35463333129883 1.3607177734375 20.34819412231445 3.055305480957031 C 16.47817611694336 4.692184448242188 13.00243377685547 7.035625457763672 10.01753616333008 10.02052688598633 C 7.032623291015625 13.00543594360352 4.689186096191406 16.48116683959961 3.052314758300781 20.3511848449707 C 1.35772705078125 24.35762405395508 0.498504638671875 28.61380386352539 0.498504638671875 33.00149536132812 C 0.498504638671875 37.38918304443359 1.35772705078125 41.64536285400391 3.052314758300781 45.65180587768555 C 4.689186096191406 49.52182769775391 7.032623291015625 52.99756622314453 10.01753616333008 55.98246765136719 C 13.00243377685547 58.96737670898438 16.47817611694336 61.31081390380859 20.34819412231445 62.94768524169922 C 24.35463333129883 64.64227294921875 28.61081314086914 65.50149536132812 32.99850463867188 65.50149536132812 C 37.38619232177734 65.50149536132812 41.64237213134766 64.64227294921875 45.6488151550293 62.94768524169922 C 49.51883697509766 61.31081390380859 52.99456405639648 58.96737670898438 55.97947692871094 55.98246765136719 C 58.96437454223633 52.99756622314453 61.30781555175781 49.52182769775391 62.94469451904297 45.65180587768555 C 64.6392822265625 41.64536285400391 65.49850463867188 37.38918304443359 65.49850463867188 33.00149536132812 C 65.49850463867188 28.61380386352539 64.6392822265625 24.35762405395508 62.94469451904297 20.3511848449707 C 61.30781555175781 16.48116683959961 58.96437454223633 13.00543594360352 55.97947692871094 10.02052688598633 C 52.99456405639648 7.035625457763672 49.51883697509766 4.692184448242188 45.6488151550293 3.055305480957031 C 41.64237213134766 1.3607177734375 37.38619232177734 0.501495361328125 32.99850463867188 0.501495361328125 M 32.99850463867188 0.001495361328125 C 51.22389602661133 0.001495361328125 65.99850463867188 14.77610397338867 65.99850463867188 33.00149536132812 C 65.99850463867188 51.22689437866211 51.22389602661133 66.00149536132812 32.99850463867188 66.00149536132812 C 14.77310562133789 66.00149536132812 -0.001495361328125 51.22689437866211 -0.001495361328125 33.00149536132812 C -0.001495361328125 14.77610397338867 14.77310562133789 0.001495361328125 32.99850463867188 0.001495361328125 Z" stroke="none" fill="#e98d24"/>
    </g>
    <g id="Ellipse_1251" data-name="Ellipse 1251" transform="translate(8.771 9.212)" fill="#fff" stroke="#e98d24" stroke-width="0.5">
      <circle cx="23.791" cy="23.791" r="23.791" stroke="none"/>
      <circle cx="23.791" cy="23.791" r="23.541" fill="none"/>
    </g>
    <path id="Icon_metro-dollar2" data-name="Icon metro-dollar2" d="M26.39,23.074a6.7,6.7,0,0,1-1.752,4.641,7.564,7.564,0,0,1-4.553,2.4V33.2a.543.543,0,0,1-.564.564H17.144a.571.571,0,0,1-.564-.564V30.119a11.1,11.1,0,0,1-2.246-.546,10.816,10.816,0,0,1-3.091-1.629,10.037,10.037,0,0,1-.819-.66q-.22-.211-.308-.317a.535.535,0,0,1-.035-.722L11.9,23.867a.548.548,0,0,1,.405-.211.436.436,0,0,1,.423.159l.035.035a9.2,9.2,0,0,0,4.28,2.2,6.152,6.152,0,0,0,1.3.141,4.27,4.27,0,0,0,2.51-.757,2.467,2.467,0,0,0,1.083-2.149,1.786,1.786,0,0,0-.264-.933,3.3,3.3,0,0,0-.59-.74,4.834,4.834,0,0,0-1.03-.66q-.7-.361-1.162-.564t-1.409-.572q-.687-.282-1.083-.44t-1.083-.467q-.687-.308-1.1-.546t-1-.625a6.2,6.2,0,0,1-.942-.749,10.977,10.977,0,0,1-.766-.863,4.309,4.309,0,0,1-.625-1.022,7.064,7.064,0,0,1-.37-1.171,6.113,6.113,0,0,1-.15-1.374A6.022,6.022,0,0,1,12.089,8.3a8.059,8.059,0,0,1,4.491-2.36V2.767a.572.572,0,0,1,.564-.564h2.378a.543.543,0,0,1,.564.564v3.1a9.8,9.8,0,0,1,1.946.405,11.284,11.284,0,0,1,1.532.59,8.486,8.486,0,0,1,1.118.66q.528.37.687.511t.264.247a.51.51,0,0,1,.088.669L24.295,11.52a.48.48,0,0,1-.405.282.561.561,0,0,1-.476-.123q-.053-.053-.255-.211T22.472,11a9.089,9.089,0,0,0-1.03-.564,7.866,7.866,0,0,0-1.312-.458,5.876,5.876,0,0,0-1.506-.2,4.577,4.577,0,0,0-2.73.757,2.368,2.368,0,0,0-.907,2.8,1.982,1.982,0,0,0,.52.731,7.761,7.761,0,0,0,.7.581,6.2,6.2,0,0,0,.986.546q.66.308,1.066.476t1.233.484q.933.352,1.427.555t1.339.616a10.64,10.64,0,0,1,1.33.749,11.245,11.245,0,0,1,1.092.881,4.56,4.56,0,0,1,.933,1.118,6.383,6.383,0,0,1,.555,1.347,5.811,5.811,0,0,1,.229,1.656Z" transform="translate(14.533 14.637)" fill="#e98d24"/>
  </g>
</svg>
