<svg xmlns="http://www.w3.org/2000/svg" xmlns:xlink="http://www.w3.org/1999/xlink" width="24" height="23.135" viewBox="0 0 24 23.135">
  <defs>
    <clipPath id="clip-path">
      <rect id="Rectangle_3148" data-name="Rectangle 3148" width="24" height="23.135" transform="translate(-3239 -1633)" fill="#fff"/>
    </clipPath>
  </defs>
  <g id="coinspot" transform="translate(3239 1633)" clip-path="url(#clip-path)">
    <g id="coinspot-seeklogo.com" transform="translate(-3237.46 -1631.839)">
      <path id="Path_9989" data-name="Path 9989" d="M-1230.355-989.2v.293a.753.753,0,0,0-.005.135v.141a7.624,7.624,0,0,1-.105,1.23,10.384,10.384,0,0,1-.416,1.685,10.138,10.138,0,0,1-.479,1.174,10.684,10.684,0,0,1-.734,1.287,10.624,10.624,0,0,1-.744.982c-.167.2-.342.385-.522.569s-.351.343-.536.5a11.06,11.06,0,0,1-.9.71,10.783,10.783,0,0,1-.916.575,10.358,10.358,0,0,1-1.972.847,10.408,10.408,0,0,1-1.4.332,7.792,7.792,0,0,1-.848.1c-.144.008-.289.013-.433.012h-.067a.062.062,0,0,1-.054-.018,1.589,1.589,0,0,1-.089-.217,10.426,10.426,0,0,0-1.129-2.108,10.188,10.188,0,0,0-.75-.956c-.189-.214-.385-.422-.591-.62a10.733,10.733,0,0,0-1.33-1.084,10.5,10.5,0,0,0-1.367-.8,10.327,10.327,0,0,0-1.119-.462,10.235,10.235,0,0,0-1.441-.386c-.306-.059-.613-.1-.924-.134-.2-.019-.4-.031-.6-.042-.249-.013-.5-.005-.746-.007a.078.078,0,0,1-.041-.007.144.144,0,0,1-.041-.071,10.468,10.468,0,0,1-.446-1.677c-.049-.278-.088-.556-.115-.837-.021-.21-.024-.42-.029-.63s-.005-.432,0-.648c0-.2,0-.4.017-.594.018-.248.048-.5.086-.741a10.635,10.635,0,0,1,.3-1.349,10.219,10.219,0,0,1,.482-1.312,10.562,10.562,0,0,1,.9-1.618,10.324,10.324,0,0,1,.771-1c.174-.2.352-.4.541-.58a10.681,10.681,0,0,1,1.033-.894,10.452,10.452,0,0,1,1.5-.949,10.4,10.4,0,0,1,1.315-.575,10.352,10.352,0,0,1,1.488-.408c.3-.059.6-.1.9-.135.253-.027.506-.034.759-.041.222-.005.442-.005.664,0,.188,0,.376,0,.563.017q.5.041,1,.131a10.422,10.422,0,0,1,1.549.4c.246.084.488.176.725.28a.159.159,0,0,1,.058.034c.022.043-.011.06-.038.078-.115.078-.228.161-.336.248q-.242.191-.467.4a8.4,8.4,0,0,0-1.343,1.62c-.333.512-.644,1.038-.936,1.575-.2.359-.385.722-.564,1.09-.08.166-.162.331-.236.5a.226.226,0,0,1-.059.1.062.062,0,0,1-.051,0,1.1,1.1,0,0,0-.632-.024,2.965,2.965,0,0,0-.656.224,5.184,5.184,0,0,0-.73.414,1.952,1.952,0,0,0-.4.373,10.99,10.99,0,0,0-1.234,1.859,6.575,6.575,0,0,0-.4.823.5.5,0,0,0-.04.187.2.2,0,0,0,.1.169.479.479,0,0,0,.227.072,1.437,1.437,0,0,0,.6-.071.53.53,0,0,0,.2-.148,6.245,6.245,0,0,0,.523-.656c.2-.281.4-.566.585-.858a.3.3,0,0,1,.182-.131,4.221,4.221,0,0,1,.571-.1c.082-.012.165-.028.248-.034.023,0,.045-.007.064.012a.056.056,0,0,1,0,.045c-.018.061-.026.124-.049.184-.02.029-.047.024-.074.014a.313.313,0,0,0-.4.139c-.112.174-.227.346-.338.52a.307.307,0,0,0,.091.426c.07.048.144.091.214.139.021.015.044.028.05.057a.11.11,0,0,1-.025.067,12.327,12.327,0,0,0-.731,1.307,16.856,16.856,0,0,0-.72,1.691,8.743,8.743,0,0,0-.382,1.344,2.851,2.851,0,0,0-.046.659.651.651,0,0,0,.082.295.31.31,0,0,0,.278.164.935.935,0,0,0,.427-.109,3.532,3.532,0,0,0,.628-.391c.231-.171.447-.359.66-.553s.421-.4.622-.6c.322-.336.632-.681.926-1.041a13.5,13.5,0,0,0,.818-1.095.124.124,0,0,1,.05-.051.092.092,0,0,1,.073.02c.037.021.073.048.112.067a.3.3,0,0,0,.382-.09c.054-.071.1-.147.147-.221.07-.108.142-.215.21-.324a.3.3,0,0,0-.033-.4c-.016-.019-.033-.035-.03-.064a.406.406,0,0,1,.2-.152.067.067,0,0,1,.03.047c.068.254.159.5.208.76a.386.386,0,0,1-.058.3,14.006,14.006,0,0,0-.851,1.456,1.521,1.521,0,0,0-.109.282.654.654,0,0,0,.031.334,1.154,1.154,0,0,0,.209.446.246.246,0,0,0,.243.11.367.367,0,0,0,.176-.109,4.868,4.868,0,0,0,.419-.472,13.354,13.354,0,0,0,1.071-1.536,5.083,5.083,0,0,0,.429-.869,2.187,2.187,0,0,0,.1-.448c.024-.18.036-.359.044-.54a2.879,2.879,0,0,0-.081-.858,1.026,1.026,0,0,0-.261-.486.067.067,0,0,1-.022-.034.1.1,0,0,1,.038-.077q.672-.762,1.284-1.573a19.021,19.021,0,0,0,1.112-1.61,8.275,8.275,0,0,0,.725-1.513,7.246,7.246,0,0,0,.262-.924c.006-.029.005-.066.048-.071a.142.142,0,0,1,.066.049q.3.316.566.655a10.357,10.357,0,0,1,.923,1.371,10.754,10.754,0,0,1,.7,1.5,10.356,10.356,0,0,1,.475,1.733c.053.29.1.583.121.878.018.2.02.392.024.588v.2A.444.444,0,0,0-1230.355-989.2Z" transform="translate(1251.255 999.525)" fill="#25363f"/>
      <path id="Path_9990" data-name="Path 9990" d="M-1180.721,351.845a.073.073,0,0,1-.045-.01.283.283,0,0,0-.112,0l-.046-.01a.16.16,0,0,0-.08,0l-.035-.011a.178.178,0,0,0-.08,0l-.036-.01a.13.13,0,0,0-.069,0,.024.024,0,0,1-.023-.011.137.137,0,0,0-.071,0l-.034-.01a.058.058,0,0,0-.049,0l-.024-.01a.094.094,0,0,0-.059,0l-.025-.01a.059.059,0,0,0-.05,0l-.022-.012a.069.069,0,0,0-.05,0,.154.154,0,0,1-.024-.01.063.063,0,0,0-.049,0c-.16-.032-.321-.056-.48-.089-.246-.05-.488-.109-.729-.176a10,10,0,0,1-1.341-.475,10.5,10.5,0,0,1-1.269-.656,10.612,10.612,0,0,1-1.141-.8,10.727,10.727,0,0,1-.972-.891,10.14,10.14,0,0,1-.709-.819,10.765,10.765,0,0,1-.7-1.021,10.4,10.4,0,0,1-.542-1.023c-.109-.233-.209-.47-.3-.712a.165.165,0,0,1-.018-.065,8.725,8.725,0,0,1,.95.008,9.974,9.974,0,0,1,1.387.175,10.306,10.306,0,0,1,4.75,2.284,10.378,10.378,0,0,1,3.042,4.328l.006.02c.01.029-.01.027-.028.027h-.1a.586.586,0,0,0-.12.005h-.178a1.842,1.842,0,0,0-.3,0h-.042c-.012-.013-.028-.009-.043-.011A.434.434,0,0,0-1180.721,351.845Z" transform="translate(1190.548 -330.952)" fill="#e5e5e5"/>
      <path id="Path_9991" data-name="Path 9991" d="M-290,999.975a.234.234,0,0,1,.123-.009.546.546,0,0,1,.18.009Z" transform="translate(300.044 -979.071)" fill="#c5c8ca"/>
      <path id="Path_9992" data-name="Path 9992" d="M-233.472,998.124l.1,0c.017,0,.035,0,.039-.022a.044.044,0,0,0,.042.024s.005,0,0,.006a0,0,0,0,1,0,0h-.178C-233.48,998.129-233.479,998.126-233.472,998.124Z" transform="translate(244.112 -977.228)" fill="#9da4a8"/>
      <path id="Path_9993" data-name="Path 9993" d="M747.877,16.337a.338.338,0,0,1,.009-.137v.136C747.885,16.341,747.882,16.341,747.877,16.337Z" transform="translate(-726.987 -5.587)" fill="#5a676d"/>
      <path id="Path_9994" data-name="Path 9994" d="M-243.884,1000.126s0,.006,0,.008H-244A.242.242,0,0,1-243.884,1000.126Z" transform="translate(254.524 -979.23)" fill="#b7bbbd"/>
      <path id="Path_9995" data-name="Path 9995" d="M747.923-21.13c-.019-.03-.008-.063-.009-.1,0-.005.006,0,.009,0Z" transform="translate(-727.024 31.451)" fill="#4a5960"/>
      <path id="Path_9996" data-name="Path 9996" d="M748.11-29.175h-.01v-.084c0-.005.006-.005.01,0Z" transform="translate(-727.21 39.401)" fill="#6e797f"/>
      <path id="Path_9997" data-name="Path 9997" d="M748.1,29.2h.01v.084c0,.005-.005.006-.009,0C748.1,29.256,748.1,29.229,748.1,29.2Z" transform="translate(-727.21 -18.451)" fill="#9ca3a7"/>
      <path id="Path_9998" data-name="Path 9998" d="M-216,1000.409a.022.022,0,0,1,0-.008h.073a.029.029,0,0,0,0,.009Z" transform="translate(226.817 -979.504)" fill="#cbcfd1"/>
      <path id="Path_9999" data-name="Path 9999" d="M748.11-35.2h-.01v-.063c0-.005.006-.005.008,0S748.11-35.217,748.11-35.2Z" transform="translate(-727.21 45.339)" fill="#9ea6a9"/>
      <path id="Path_10000" data-name="Path 10000" d="M748.2,37.2h.008v.063H748.2Z" transform="translate(-727.309 -26.368)" fill="#caced1"/>
      <path id="Path_10001" data-name="Path 10001" d="M748.208-40.9H748.2v-.063a.008.008,0,0,1,.008,0Z" transform="translate(-727.309 50.981)" fill="#caced0"/>
      <path id="Path_10002" data-name="Path 10002" d="M-312.728-951.323c.028.008.047-.01.066-.024a6.514,6.514,0,0,1,.609-.353.168.168,0,0,1,.049.052,3.99,3.99,0,0,0,.421.543,3.879,3.879,0,0,0,1.191.875,3.783,3.783,0,0,0,1.068.328.121.121,0,0,1,.077.026c-.013.2-.026.39-.055.583-.016.1-.032.2-.05.3a.064.064,0,0,0,0,.04c-.027.021-.021.053-.026.081a7.74,7.74,0,0,1-.856,2.206,16.907,16.907,0,0,1-1.158,1.721c-.438.588-.9,1.154-1.384,1.705-.013.015-.024.03-.035.045a.108.108,0,0,1-.031.059c-.105.124-.216.245-.327.366-.269.291-.537.578-.819.852-.115.112-.231.22-.35.329a.078.078,0,0,1-.059.028l-.2.153c-.029.021-.049,0-.069-.017-.146-.094-.293-.188-.438-.284-.064-.044-.133-.082-.2-.13s-.154-.1-.23-.148a.126.126,0,0,1-.049-.044c-.008-.034.014-.061.028-.087.117-.206.231-.414.333-.627a4.943,4.943,0,0,0,.339-.864,1.175,1.175,0,0,0,.049-.313c0-.01,0-.021,0-.031-.013-.144-.1-.2-.23-.143a1.344,1.344,0,0,0-.383.258,7.37,7.37,0,0,0-.987,1.131c-.021.028-.037.065-.078.071a.185.185,0,0,1-.087-.044c-.069-.043-.137-.088-.2-.133-.147-.092-.293-.188-.438-.283-.11-.071-.219-.141-.328-.214-.022-.015-.051-.026-.049-.062l.056-.24a.137.137,0,0,1,.014-.106c.05-.159.108-.316.165-.472.18-.488.381-.966.6-1.441a.19.19,0,0,1,.065-.1c.141-.295.279-.59.426-.882a23.1,23.1,0,0,1,1.533-2.639,7.748,7.748,0,0,1,2-2.031C-312.741-951.295-312.716-951.3-312.728-951.323Z" transform="translate(327.365 952.2)" fill="#e5e5e5"/>
      <path id="Path_10003" data-name="Path 10003" d="M-86.2-136.269c.166-.156.333-.31.494-.471q.542-.541,1.047-1.115c.014-.016.029-.029.044-.045a.945.945,0,0,1,.293.5,2.894,2.894,0,0,1,.09.868,5.256,5.256,0,0,1-.079.778,2.469,2.469,0,0,1-.282.727,12.371,12.371,0,0,1-1.5,2.176,2,2,0,0,1-.259.264.244.244,0,0,1-.374-.021,1.068,1.068,0,0,1-.227-.442,1.44,1.44,0,0,1-.049-.229.441.441,0,0,1,.023-.211,4.369,4.369,0,0,1,.344-.7q.287-.509.61-1a.333.333,0,0,0,.048-.262c-.038-.21-.11-.41-.167-.614C-86.16-136.135-86.18-136.2-86.2-136.269Z" transform="translate(99.169 146.903)" fill="#cb584c"/>
      <path id="Path_10004" data-name="Path 10004" d="M-625.1-387.627c-.109.249-.219.5-.325.746-.187.446-.365.9-.508,1.357a.057.057,0,0,1-.007.014c-.286.048-.578.064-.86.135a.3.3,0,0,0-.185.132,15.451,15.451,0,0,1-.934,1.314c-.057.07-.118.137-.18.2a.56.56,0,0,1-.305.18,1.423,1.423,0,0,1-.6.021.423.423,0,0,1-.112-.042.231.231,0,0,1-.127-.271,1.659,1.659,0,0,1,.129-.347,12.7,12.7,0,0,1,1.419-2.326,3,3,0,0,1,1.046-.829,3.357,3.357,0,0,1,.923-.339A1.027,1.027,0,0,1-625.1-387.627Z" transform="translate(635.757 394.096)" fill="#cb584c"/>
      <path id="Path_10005" data-name="Path 10005" d="M-539.086-30.984a15.506,15.506,0,0,1-1.776,2.186,10.128,10.128,0,0,1-1.406,1.252,2.566,2.566,0,0,1-.707.383.754.754,0,0,1-.231.039.341.341,0,0,1-.334-.223.971.971,0,0,1-.066-.4,3.635,3.635,0,0,1,.125-.855,12.432,12.432,0,0,1,.714-2.018,14.79,14.79,0,0,1,1.08-2.052.03.03,0,0,1,.039,0,2.043,2.043,0,0,1,.229.15.048.048,0,0,1,.011.017c.01.032-.009.056-.025.082a9.515,9.515,0,0,0-.562,1,6.521,6.521,0,0,0-.494,1.329,2.589,2.589,0,0,0-.076.755.731.731,0,0,0,.133.406.432.432,0,0,0,.41.169,1.453,1.453,0,0,0,.638-.244,4.358,4.358,0,0,0,.646-.5,8.663,8.663,0,0,0,1.312-1.578c.02-.029.034-.067.076-.074a.1.1,0,0,1,.058.021l.17.111C-539.1-31.027-539.081-31.015-539.086-30.984Z" transform="translate(551.001 42.785)" fill="#fed364"/>
      <path id="Path_10006" data-name="Path 10006" d="M-399.27-157.554l-.268-.17c-.078-.064-.167-.113-.251-.168a.329.329,0,0,1-.1-.487c.108-.166.219-.33.323-.5a.334.334,0,0,1,.446-.136.1.1,0,0,0,.025.005,1.284,1.284,0,0,0,.171.118c.2.134.409.265.612.4.013.008.025.019.037.028.025.034,0,.06-.019.084-.078.113-.157.226-.233.34-.136.2-.263.41-.389.617a.181.181,0,0,1-.046.062.062.062,0,0,1-.063-.013c-.07-.044-.138-.092-.208-.136C-399.251-157.521-399.257-157.539-399.27-157.554Z" transform="translate(408.853 167.834)" fill="#cb584c"/>
      <path id="Path_10007" data-name="Path 10007" d="M-164.039-8.26a3.1,3.1,0,0,0-.262-.176.194.194,0,0,1-.088-.038c-.053-.039-.11-.07-.164-.107-.02-.014-.042-.025-.047-.052a.118.118,0,0,1,.029-.066c.222-.312.429-.633.627-.961.017-.027.028-.063.071-.06l.639.413c.018.011.036.02.053.03s.04.039.059.06a.322.322,0,0,1,.031.4c-.116.182-.232.364-.352.542a.324.324,0,0,1-.466.094A.776.776,0,0,0-164.039-8.26Z" transform="translate(175.954 20.061)" fill="#cb584c"/>
      <path id="Path_10008" data-name="Path 10008" d="M-32.482,594.274a1.327,1.327,0,0,0-.257.04.467.467,0,0,0-.348.412,1.542,1.542,0,0,0-.022.207l0,.007,0-.007a1.29,1.29,0,0,0-.042-.288.447.447,0,0,0-.347-.336,1.094,1.094,0,0,0-.267-.034c0-.018.009-.013.018-.014a.246.246,0,0,0,.054,0,.855.855,0,0,0,.18-.026.47.47,0,0,0,.381-.422c.01-.065.018-.13.027-.208a2.006,2.006,0,0,0,.031.235.473.473,0,0,0,.434.408l.1.013C-32.526,594.27-32.5,594.243-32.482,594.274Z" transform="translate(46.495 -576.954)" fill="#fed364"/>
      <path id="Path_10009" data-name="Path 10009" d="M-860.483,77.177a1.238,1.238,0,0,0,.232-.032.467.467,0,0,0,.384-.424c.011-.07.017-.141.024-.212l0-.008,0,.008a1.5,1.5,0,0,0,.03.254.47.47,0,0,0,.413.392c.063.011.126.018.19.029a.743.743,0,0,0-.477.166.771.771,0,0,0-.163.475c0-.028-.007-.057-.012-.086s-.007-.063-.012-.093a.485.485,0,0,0-.228-.368.746.746,0,0,0-.279-.08l-.109-.011C-860.491,77.183-860.489,77.18-860.483,77.177Z" transform="translate(864.571 -65.257)" fill="#fed364"/>
      <path id="Path_10010" data-name="Path 10010" d="M-1077.913-199.461a1.382,1.382,0,0,0-.262.04.467.467,0,0,0-.353.419c-.009.056-.015.113-.027.17-.008-.054-.013-.109-.023-.163a.49.49,0,0,0-.494-.454c-.043,0-.085-.009-.127-.017a.768.768,0,0,0,.48-.161.759.759,0,0,0,.17-.473c0,.024.007.047.01.071s.005.048.009.072a.5.5,0,0,0,.51.475l.109.011C-1077.905-199.467-1077.906-199.464-1077.913-199.461Z" transform="translate(1080.998 208.453)" fill="#fed364"/>
      <path id="Path_10011" data-name="Path 10011" d="M-562.982-543.008c-.01-.067-.014-.134-.029-.2a.469.469,0,0,0-.432-.405c-.058-.009-.117-.015-.176-.022-.007,0-.007-.005,0-.008a1.169,1.169,0,0,0,.306-.054.473.473,0,0,0,.309-.407c.005-.03.008-.062.013-.093s0-.044.007-.064a.015.015,0,0,1,0-.01c0-.007.006-.006.008,0a1.618,1.618,0,0,0,.028.211.468.468,0,0,0,.417.393c.062.01.123.018.186.03l-.159.021a.488.488,0,0,0-.46.482l-.013.124C-562.975-543-562.978-543-562.982-543.008Z" transform="translate(570.81 549.034)" fill="#fed364"/>
      <path id="Path_10012" data-name="Path 10012" d="M-300.51-868.91c.009.056.016.114.027.169a.469.469,0,0,0,.42.383c.065.01.13.018.2.027-.077.01-.148.016-.217.029a.475.475,0,0,0-.418.446c-.005.035-.009.069-.014.1-.006.006,0,.025-.017.02a1.616,1.616,0,0,0-.031-.2.467.467,0,0,0-.418-.373c-.07-.012-.141-.018-.224-.028a2.073,2.073,0,0,0,.259-.032.467.467,0,0,0,.391-.4c.01-.054.016-.11.024-.165C-300.507-868.935-300.517-868.915-300.51-868.91Z" transform="translate(311.127 870.297)" fill="#fed364"/>
      <path id="Path_10013" data-name="Path 10013" d="M-874.844-654.209a1.194,1.194,0,0,0-.04-.257.446.446,0,0,0-.352-.337,1.27,1.27,0,0,0-.236-.034c-.007,0-.008-.005,0-.01h0c.02-.011.043,0,.064-.008.051-.008.1-.013.154-.024a.468.468,0,0,0,.389-.407,1.126,1.126,0,0,0,.023-.206l0-.009.005.006h0c.014.023,0,.05.01.074a1.067,1.067,0,0,0,.034.2.471.471,0,0,0,.423.352c.033.005.065.008.1.012s.048-.012.061.018a1.3,1.3,0,0,0-.261.042.47.47,0,0,0-.343.426c-.008.053-.013.107-.021.16C-874.839-654.2-874.842-654.2-874.844-654.209Z" transform="translate(879.404 659.095)" fill="#fed364"/>
      <path id="Path_10014" data-name="Path 10014" d="M533.389,241.107a1.592,1.592,0,0,0,.032.2.462.462,0,0,0,.393.362,1.174,1.174,0,0,0,.181.024c0,.027-.024.005-.03.017a1.074,1.074,0,0,0-.25.049.452.452,0,0,0-.3.372c-.012.054-.016.11-.024.165-.011.006-.014,0-.018-.009a1.2,1.2,0,0,0-.04-.219.47.47,0,0,0-.426-.343c-.043-.007-.087-.008-.13-.013-.007,0-.018-.006-.01-.018a1.155,1.155,0,0,0,.247-.041.452.452,0,0,0,.334-.375c.011-.052.017-.107.024-.16C533.376,241.11,533.378,241.1,533.389,241.107Z" transform="translate(-514.122 -228.142)" fill="#fed364"/>
      <path id="Path_10015" data-name="Path 10015" d="M489.248-310.5a1.1,1.1,0,0,0,.038.267.456.456,0,0,0,.383.345c.054.012.11.017.165.024.007.005.007.011,0,.017a1.1,1.1,0,0,0-.254.049.455.455,0,0,0-.308.378c-.012.056-.016.113-.024.169-.026,0-.006-.023-.017-.03a1.265,1.265,0,0,0-.041-.214.445.445,0,0,0-.335-.318,1.176,1.176,0,0,0-.2-.033.011.011,0,0,1,0-.018,1.117,1.117,0,0,0,.234-.045.436.436,0,0,0,.3-.3.892.892,0,0,0,.042-.24C489.242-310.463,489.22-310.491,489.248-310.5Z" transform="translate(-470.47 317.699)" fill="#fed364"/>
      <path id="Path_10016" data-name="Path 10016" d="M543.943-322.177c-.006.017-.013.034-.018.051a.7.7,0,0,1,.018-.175Z" transform="translate(-525.165 329.376)" fill="#5b5d48"/>
      <path id="Path_10017" data-name="Path 10017" d="M610.529-249.771a.226.226,0,0,1,.121.019h-.121A.013.013,0,0,1,610.529-249.771Z" transform="translate(-591.072 257.606)" fill="#3d4844"/>
      <path id="Path_10018" data-name="Path 10018" d="M-43.227,656.125l-.072.018h-.1A.693.693,0,0,1-43.227,656.125Z" transform="translate(56.02 -638.823)" fill="#616249"/>
      <path id="Path_10019" data-name="Path 10019" d="M-236.9-885.188v-.112a.605.605,0,0,1,.018.143C-236.9-885.158-236.891-885.18-236.9-885.188Z" transform="translate(247.499 886.494)" fill="#525747"/>
      <path id="Path_10020" data-name="Path 10020" d="M-236.782-751.9a.512.512,0,0,1-.018.143v-.1C-236.789-751.871-236.811-751.9-236.782-751.9Z" transform="translate(247.4 754.487)" fill="#5b5e49"/>
      <path id="Path_10021" data-name="Path 10021" d="M591,363.716v.079c-.03-.028-.017-.055-.019-.08A.014.014,0,0,1,591,363.716Z" transform="translate(-571.73 -349.468)" fill="#444c45"/>
      <path id="Path_10022" data-name="Path 10022" d="M544.1-193.8l.017.03v.084A.25.25,0,0,1,544.1-193.8Z" transform="translate(-525.338 202.219)" fill="#c7ab5b"/>
      <path id="Path_10023" data-name="Path 10023" d="M524.591,297.3l.01.018a.286.286,0,0,1-.094-.009l-.007,0,.007,0Z" transform="translate(-505.946 -283.75)" fill="#837a4f"/>
      <path id="Path_10024" data-name="Path 10024" d="M591.013,229.769a.09.09,0,0,1,.011-.069.134.134,0,0,1,.006.069A.012.012,0,0,1,591.013,229.769Z" transform="translate(-571.762 -216.857)" fill="#716d4c"/>
      <path id="Path_10025" data-name="Path 10025" d="M-759.938-593.8l-.062-.018a.615.615,0,0,1,.124.01l.007,0-.007,0Z" transform="translate(765.133 598.059)" fill="#b39d57"/>
      <path id="Path_10026" data-name="Path 10026" d="M84.062,656.263,84,656.245a.563.563,0,0,1,.125.01l.007,0-.007,0Z" transform="translate(-70.049 -638.944)" fill="#a59355"/>
      <path id="Path_10027" data-name="Path 10027" d="M647.9,297.417l.03-.017H648c.008,0,.008,0,0,.008h0c-.016.013-.037,0-.053.009Z" transform="translate(-628.057 -283.849)" fill="#9d8d54"/>
      <path id="Path_10028" data-name="Path 10028" d="M-236.9-874.6l.018.031v.05l-.017-.02C-236.9-874.559-236.9-874.579-236.9-874.6Z" transform="translate(247.499 875.905)" fill="#caae5b"/>
      <path id="Path_10029" data-name="Path 10029" d="M591.156,236.3h.018v.052l-.018.009C591.155,236.342,591.156,236.321,591.156,236.3Z" transform="translate(-571.905 -223.388)" fill="#b8a058"/>
      <path id="Path_10030" data-name="Path 10030" d="M-732.7,141.264a.1.1,0,0,1,.073,0Z" transform="translate(738.118 -129.338)" fill="#606149"/>
      <path id="Path_10031" data-name="Path 10031" d="M591.1,354.1l.018.009v.052c-.011.007-.014,0-.018-.009Z" transform="translate(-571.85 -339.957)" fill="#b39d57"/>
      <path id="Path_10032" data-name="Path 10032" d="M-236.782-755.759c-.006.014-.012.027-.018.041v-.062l.017-.02C-236.783-755.787-236.783-755.773-236.782-755.759Z" transform="translate(247.4 758.347)" fill="#c9ad5b"/>
      <path id="Path_10033" data-name="Path 10033" d="M-435.626-483.5a.1.1,0,0,1-.074,0Z" transform="translate(444.221 488.892)" fill="#5f6049"/>
      <path id="Path_10034" data-name="Path 10034" d="M601.9-249.583v-.017h.052c.007.005.007.012,0,.017Z" transform="translate(-582.537 257.436)" fill="#b29c57"/>
      <path id="Path_10035" data-name="Path 10035" d="M-1018.037-211.2a.118.118,0,0,1,0,.07C-1018.047-211.156-1018.036-211.178-1018.037-211.2Z" transform="translate(1020.477 219.437)" fill="#6a684b"/>
      <path id="Path_10036" data-name="Path 10036" d="M-169.637-811.5a.081.081,0,0,1-.063,0Z" transform="translate(181.001 813.465)" fill="#64644a"/>
      <path id="Path_10037" data-name="Path 10037" d="M-814.792-662.024h-.008v-.077h.008Z" transform="translate(819.36 665.626)" fill="#8e8251"/>
      <path id="Path_10038" data-name="Path 10038" d="M-1017.994-72.5a.127.127,0,0,1,0,.073A.139.139,0,0,1-1017.994-72.5Z" transform="translate(1020.437 82.186)" fill="#5a5c48"/>
      <path id="Path_10039" data-name="Path 10039" d="M-1090.4-139.83a.118.118,0,0,1,.071,0A.126.126,0,0,1-1090.4-139.83Z" transform="translate(1092.081 148.818)" fill="#606149"/>
      <path id="Path_10040" data-name="Path 10040" d="M29.2,583.861V583.8h.005v.065Z" transform="translate(-15.821 -567.257)" fill="#555948"/>
      <path id="Path_10041" data-name="Path 10041" d="M657.9,297.231s0-.006,0-.008a.142.142,0,0,1,.081.008Z" transform="translate(-637.952 -283.672)" fill="#4b5246"/>
      <path id="Path_10042" data-name="Path 10042" d="M591.1,359.1l.018.009c0,.015,0,.028,0,.043H591.1Z" transform="translate(-571.85 -344.904)" fill="#736e4d"/>
      <path id="Path_10043" data-name="Path 10043" d="M-501.977-417.3v.086a.182.182,0,0,1-.007-.086S-501.98-417.3-501.977-417.3Z" transform="translate(509.815 423.383)" fill="#5c5e49"/>
      <path id="Path_10044" data-name="Path 10044" d="M479.032-249.793c-.013,0-.032.007-.032-.009s.021-.008.032-.009A.013.013,0,0,1,479.032-249.793Z" transform="translate(-460.922 257.647)" fill="#61624a"/>
      <path id="Path_10045" data-name="Path 10045" d="M482.1-249.582v-.018h.042a.012.012,0,0,1,0,.018Z" transform="translate(-463.989 257.436)" fill="#948652"/>
      <path id="Path_10046" data-name="Path 10046" d="M606.9-249.682v-.017h.042v.019Z" transform="translate(-587.485 257.535)" fill="#726e4c"/>
      <path id="Path_10047" data-name="Path 10047" d="M-951.2-139.861a.164.164,0,0,1,.074,0,.164.164,0,0,1-.074,0Z" transform="translate(954.335 148.846)" fill="#62634a"/>
      <path id="Path_10048" data-name="Path 10048" d="M-871.826,141.146a.163.163,0,0,1-.074,0,.163.163,0,0,1,.074,0Z" transform="translate(875.864 -129.218)" fill="#62634a"/>
      <path id="Path_10049" data-name="Path 10049" d="M-799.191,208.862c-.013-.017-.005-.036-.009-.062C-799.179,208.826-799.193,208.844-799.191,208.862Z" transform="translate(803.923 -196.175)" fill="#5c5e49"/>
      <path id="Path_10050" data-name="Path 10050" d="M95.9,657.171v-.008a.037.037,0,1,1,0,.008Z" transform="translate(-81.824 -639.852)" fill="#61624a"/>
      <path id="Path_10051" data-name="Path 10051" d="M518.173,297.127a.024.024,0,0,0,0,.008.2.2,0,0,1-.073,0A.175.175,0,0,1,518.173,297.127Z" transform="translate(-499.613 -283.577)" fill="#4c5346"/>
      <path id="Path_10052" data-name="Path 10052" d="M-310.7-811.779a.126.126,0,0,1,.073,0A.142.142,0,0,1-310.7-811.779Z" transform="translate(320.527 813.747)" fill="#5d5f49"/>
      <path id="Path_10053" data-name="Path 10053" d="M29.1,721.1a.011.011,0,0,0,.008,0v.07H29.1Z" transform="translate(-15.722 -703.122)" fill="#7e774e"/>
      <path id="Path_10054" data-name="Path 10054" d="M-887.826-592.854a.181.181,0,0,1-.074,0,.163.163,0,0,1,.074,0Z" transform="translate(891.697 597.112)" fill="#5e6049"/>
      <path id="Path_10055" data-name="Path 10055" d="M-748.1-592.693v-.007h.07A.124.124,0,0,1-748.1-592.693Z" transform="translate(753.357 596.951)" fill="#69674b"/>
      <path id="Path_10056" data-name="Path 10056" d="M-502.023-556.626a.179.179,0,0,1,0-.074.165.165,0,0,1,0,.074Z" transform="translate(509.853 561.327)" fill="#5a5d48"/>
      <path id="Path_10057" data-name="Path 10057" d="M-815.077-526v.086a.186.186,0,0,1-.007-.086Z" transform="translate(819.644 530.948)" fill="#545847"/>
      <path id="Path_10058" data-name="Path 10058" d="M-574.826-483.854a.181.181,0,0,1-.074,0,.164.164,0,0,1,.074,0Z" transform="translate(581.967 489.251)" fill="#63634a"/>
      <path id="Path_10059" data-name="Path 10059" d="M-814.256-654.726a.121.121,0,0,1-.009-.074A.1.1,0,0,1-814.256-654.726Z" transform="translate(818.833 658.402)" fill="#8e8251"/>
      <path id="Path_10060" data-name="Path 10060" d="M-798.794,70.374h-.006V70.3A.16.16,0,0,1-798.794,70.374Z" transform="translate(803.528 -59.122)" fill="#81794f"/>
      <path id="Path_10061" data-name="Path 10061" d="M-880.8-592.792v-.006l.061,0a.029.029,0,0,1,0,.009Z" transform="translate(884.671 597.05)" fill="#b09a57"/>
      <path id="Path_10062" data-name="Path 10062" d="M-874.936-593.75a.09.09,0,0,1-.064.008A.1.1,0,0,1-874.936-593.75Z" transform="translate(878.931 597.991)" fill="#b09a57"/>
      <path id="Path_10063" data-name="Path 10063" d="M486.1-249.582v-.018h.031v.018C486.121-249.583,486.11-249.582,486.1-249.582Z" transform="translate(-467.947 257.436)" fill="#c2a85a"/>
      <path id="Path_10064" data-name="Path 10064" d="M-502.09-422.838h-.008c0-.02,0-.041,0-.061h.01C-502.091-422.879-502.09-422.858-502.09-422.838Z" transform="translate(509.928 428.925)" fill="#b59e57"/>
      <path id="Path_10065" data-name="Path 10065" d="M-814.794-531.839h-.006v-.062h.008C-814.792-531.878-814.793-531.858-814.794-531.839Z" transform="translate(819.36 536.786)" fill="#b29c57"/>
      <path id="Path_10066" data-name="Path 10066" d="M-502.922-542.9a.089.089,0,0,1-.007.064A.11.11,0,0,1-502.922-542.9Z" transform="translate(510.75 547.671)" fill="#bfa659"/>
      <path id="Path_10067" data-name="Path 10067" d="M-502-549.6h.006v.062H-502C-502-549.559-502-549.58-502-549.6Z" transform="translate(509.829 554.301)" fill="#bfa659"/>
      <path id="Path_10068" data-name="Path 10068" d="M-956.049-139.8v.006h-.051v-.008Z" transform="translate(959.184 148.783)" fill="#c9ad5b"/>
      <path id="Path_10069" data-name="Path 10069" d="M652.9,298.168a.086.086,0,0,1,.053-.009C652.938,298.173,652.919,298.169,652.9,298.168Z" transform="translate(-633.005 -284.599)" fill="#4b5246"/>
      <path id="Path_10070" data-name="Path 10070" d="M-567.8-483.594v-.006h.051v.008Z" transform="translate(574.941 488.991)" fill="#cbae5b"/>
      <path id="Path_10071" data-name="Path 10071" d="M-864.8,141.307V141.3h.05v.008Z" transform="translate(868.838 -129.38)" fill="#c9ad5b"/>
      <path id="Path_10072" data-name="Path 10072" d="M216.987-996.481a1.916,1.916,0,0,1-.385-.067,3.9,3.9,0,0,1-2.4-1.712c-.009-.015-.023-.027-.021-.046a5.265,5.265,0,0,1,.937-.36,3.261,3.261,0,0,1,.947-.131,1.5,1.5,0,0,1,.243.029.383.383,0,0,1,.239.155,1.852,1.852,0,0,1,.254.535,4.435,4.435,0,0,1,.191,1.394C216.989-996.617,216.988-996.549,216.987-996.481Z" transform="translate(-198.868 998.806)" fill="#cb584c"/>
      <path id="Path_10073" data-name="Path 10073" d="M-310.8,998.987a.194.194,0,0,1,.133,0Z" transform="translate(320.626 -978.094)" fill="#c5c8ca"/>
      <path id="Path_10074" data-name="Path 10074" d="M-325.8,997.987a.139.139,0,0,1,.112,0Z" transform="translate(335.47 -977.104)" fill="#bbbfc2"/>
      <path id="Path_10075" data-name="Path 10075" d="M-348.8,996.061a.079.079,0,0,1,.08,0Z" transform="translate(358.229 -975.199)" fill="#cacdce"/>
      <path id="Path_10076" data-name="Path 10076" d="M-337.9,997.024a.077.077,0,0,1,.08,0Z" transform="translate(347.443 -976.151)" fill="#bfc3c5"/>
      <path id="Path_10077" data-name="Path 10077" d="M-367.8,994.048a.065.065,0,0,1,.071,0Z" transform="translate(377.031 -973.207)" fill="#bcc0c2"/>
      <path id="Path_10078" data-name="Path 10078" d="M-358.8,995.061a.06.06,0,0,1,.069,0Z" transform="translate(368.125 -974.21)" fill="#bdc1c4"/>
      <path id="Path_10079" data-name="Path 10079" d="M-383.8,992.1a.046.046,0,0,1,.059,0Z" transform="translate(392.864 -971.278)" fill="#bdc1c4"/>
      <path id="Path_10080" data-name="Path 10080" d="M-404.8,989.135a.035.035,0,0,1,.049,0Z" transform="translate(413.644 -968.346)" fill="#b8bcbf"/>
      <path id="Path_10081" data-name="Path 10081" d="M-390.9,991.186a.036.036,0,0,1,.05,0Z" transform="translate(399.89 -970.375)" fill="#c4c7c9"/>
      <path id="Path_10082" data-name="Path 10082" d="M-375.9,993.135a.034.034,0,0,1,.049,0Z" transform="translate(385.046 -972.305)" fill="#c7cacc"/>
      <path id="Path_10083" data-name="Path 10083" d="M-397.8,990.172a.037.037,0,0,1,.05,0Z" transform="translate(406.717 -969.373)" fill="#c1c5c7"/>
      <path id="Path_10084" data-name="Path 10084" d="M-953.518,436.2a.97.97,0,0,1,.374.1,1.114,1.114,0,0,1,.491.422.631.631,0,0,1,.067.62.64.64,0,0,1-.426.347c-.046.015-.1.022-.142.032a.818.818,0,0,1-.277-.062,1.164,1.164,0,0,1-.591-.5.646.646,0,0,1-.077-.521.632.632,0,0,1,.489-.437C-953.58,436.2-953.548,436.212-953.518,436.2Z" transform="translate(957.229 -421.199)" fill="#cbcbcb"/>
      <path id="Path_10085" data-name="Path 10085" d="M-735.8,677.3a1.149,1.149,0,0,1,.961.507.588.588,0,0,1-.073.772.87.87,0,0,1-.366.192,1.034,1.034,0,0,1-.56-.148.966.966,0,0,1-.444-.468.609.609,0,0,1,.453-.847A.073.073,0,0,0-735.8,677.3Z" transform="translate(741.716 -659.78)" fill="#cbcbcb"/>
      <path id="Path_10086" data-name="Path 10086" d="M-679.443,529.445a.847.847,0,0,1,.379.461.515.515,0,0,1-.012.376.407.407,0,0,1-.436.213.353.353,0,0,1-.13-.036c-.039-.034-.084-.06-.121-.1a.772.772,0,0,1-.231-.488.409.409,0,0,1,.519-.434A.1.1,0,0,0-679.443,529.445Z" transform="translate(685.963 -513.449)" fill="#cbcbcb"/>
      <path id="Path_10087" data-name="Path 10087" d="M-982.436,435.021c-.071.025-.146.04-.217.069a.584.584,0,0,0-.339.723,1.019,1.019,0,0,0,.5.577,1.067,1.067,0,0,0,.38.137.185.185,0,0,1,.043.018,1.182,1.182,0,0,1-.674-.115,1.018,1.018,0,0,1-.57-.6.6.6,0,0,1,.457-.782A1.013,1.013,0,0,1-982.436,435.021Z" transform="translate(986.148 -420.02)" fill="#b2b2b2"/>
      <path id="Path_10088" data-name="Path 10088" d="M-765.047,677.2c-.07.042-.15.06-.222.1a.58.58,0,0,0-.213.8,1.091,1.091,0,0,0,.788.536,1.186,1.186,0,0,1,.168.029,1.219,1.219,0,0,1-1.053-.251.766.766,0,0,1-.311-.563.522.522,0,0,1,.133-.38.809.809,0,0,1,.554-.268c.023-.011.05,0,.074-.009Z" transform="translate(770.962 -659.681)" fill="#b2b2b2"/>
      <path id="Path_10089" data-name="Path 10089" d="M-695.6,522.924a.3.3,0,0,1-.121,0,.393.393,0,0,0-.4.467.768.768,0,0,0,.306.513c.02.016.022.018.02.036a.761.761,0,0,1-.521-.639.393.393,0,0,1,.484-.456A.756.756,0,0,1-695.6,522.924Z" transform="translate(702.125 -506.929)" fill="#b2b2b2"/>
      <path id="Path_10090" data-name="Path 10090" d="M-700.026,677.149c-.023.016-.049.008-.074.009A.116.116,0,0,1-700.026,677.149Z" transform="translate(705.859 -659.629)" fill="#cbcbcb"/>
      <path id="Path_10091" data-name="Path 10091" d="M22.364-752.268a1.634,1.634,0,0,1-1.639,1.628,1.635,1.635,0,0,1-1.627-1.639,1.633,1.633,0,0,1,1.647-1.625A1.632,1.632,0,0,1,22.364-752.268Z" transform="translate(-5.824 756.47)" fill="#263740"/>
      <path id="Path_10092" data-name="Path 10092" d="M-353.014-226.822c.028-.008.036-.036.052-.056a8.087,8.087,0,0,1,.9-1.059,2.012,2.012,0,0,1,.4-.313.462.462,0,0,1,.156-.058.142.142,0,0,1,.18.121.618.618,0,0,1-.006.259,3.694,3.694,0,0,1-.292.841c-.128.282-.273.556-.426.824a.124.124,0,0,0-.026.055.094.094,0,0,1-.022.068q-.29.489-.618.953c-.02.028-.039.057-.057.087-.09.111-.171.228-.259.341a7.09,7.09,0,0,1-.75.833,1.621,1.621,0,0,1-.4.286.431.431,0,0,1-.109.037.164.164,0,0,1-.209-.137.632.632,0,0,1,0-.238,2.5,2.5,0,0,1,.152-.526,8.366,8.366,0,0,1,.569-1.167c.013-.021.025-.042.04-.062.069-.131.149-.255.227-.379.142-.227.289-.449.446-.667C-353.045-226.8-353.035-226.814-353.014-226.822Z" transform="translate(363.873 236.371)" fill="#cb584c"/>
      <path id="Path_10093" data-name="Path 10093" d="M-304.166-102.62a.428.428,0,0,1-.083.131c-.2.28-.38.57-.56.863-.021.033-.04.069-.058.1a.049.049,0,0,1-.049-.006c-.065-.043-.132-.081-.194-.126-.016-.01-.031-.022-.028-.045a1.238,1.238,0,0,1,.112-.2c.125-.207.255-.411.392-.609l.161-.231a.092.092,0,0,0,.026-.061C-304.349-102.747-304.259-102.682-304.166-102.62Z" transform="translate(315.024 112.17)" fill="#be5347"/>
      <path id="Path_10094" data-name="Path 10094" d="M-189.1-25.7c-.007-.037.024-.055.041-.078.229-.324.442-.657.645-1a.147.147,0,0,1,.016-.02c.1.055.189.117.28.181-.03.016-.041.047-.056.073-.161.27-.331.533-.508.792-.051.074-.1.146-.157.219a.041.041,0,0,1-.048-.006l-.183-.117C-189.088-25.669-189.1-25.682-189.1-25.7Z" transform="translate(200.202 36.964)" fill="#be5347"/>
      <path id="Path_10095" data-name="Path 10095" d="M-443.851-14.621l.261.168.293.2c-.022,0-.029.023-.04.039a9.433,9.433,0,0,1-.637.87q-.163.2-.341.388c-.075.079-.149.16-.229.236a4.542,4.542,0,0,1-.817.651,1.663,1.663,0,0,1-.513.213.517.517,0,0,1-.454-.088.56.56,0,0,1-.188-.346,2.025,2.025,0,0,1,.025-.761,5.791,5.791,0,0,1,.413-1.234,9.41,9.41,0,0,1,.692-1.266.072.072,0,0,0,.019-.047l.249.159c.018.011.037.02.054.029.087.066.18.12.271.178a8.277,8.277,0,0,0-.613,1.25,2.015,2.015,0,0,0-.153.615.342.342,0,0,0,.024.158.134.134,0,0,0,.158.082.858.858,0,0,0,.371-.2,5.115,5.115,0,0,0,.681-.7c.152-.182.3-.368.435-.56C-443.88-14.605-443.87-14.62-443.851-14.621Z" transform="translate(454.95 25.881)" fill="#f1b155"/>
      <path id="Path_10096" data-name="Path 10096" d="M82.81-691.445a.975.975,0,0,1,1.008.9.977.977,0,0,1-.922,1.053.984.984,0,0,1-1.029-.894A.975.975,0,0,1,82.81-691.445Z" transform="translate(-67.936 694.664)" fill="#c1e1f1"/>
    </g>
  </g>
</svg>
