<svg xmlns="http://www.w3.org/2000/svg" width="24" height="24" viewBox="0 0 24 24">
  <g id="coinbase" transform="translate(3098 1633)">
    <rect id="Rectangle_3154" data-name="Rectangle 3154" width="24" height="24" rx="12" transform="translate(-3098 -1633)" fill="#1452f5"/>
    <rect id="Rectangle_3158" data-name="Rectangle 3158" width="24" height="6" rx="3" transform="translate(-3098 -1623.471)" fill="#1452f5"/>
    <path id="coinbase-2" data-name="coinbase" d="M16.321,6.2h-.6v3.826a3.228,3.228,0,0,0,1.017.168c1.006,0,1.585-.561,1.585-1.38a1.266,1.266,0,0,0-1.372-1.3,1.721,1.721,0,0,0-.615.123L16.321,6.2Zm-4.33.224a.37.37,0,0,0-.379.348.381.381,0,0,0,.379.37.36.36,0,1,0,0-.718Zm-3.762,3.2A1.3,1.3,0,0,1,7.8,9.7a.819.819,0,0,1-.9-.83.8.8,0,0,1,.876-.83,1.143,1.143,0,0,1,.426.079,1.548,1.548,0,0,1,.26-.415,1.561,1.561,0,0,0-.734-.168A1.337,1.337,0,0,0,6.3,8.882a1.316,1.316,0,0,0,1.432,1.335,1.693,1.693,0,0,0,.781-.18,1.865,1.865,0,0,1-.284-.415ZM9.9,7.513a1.343,1.343,0,1,1,0,2.682,1.342,1.342,0,1,1,0-2.682ZM9.1,8.859a.789.789,0,1,1,1.574,0,.789.789,0,1,1-1.574,0Zm2.579,1.279h.6V7.569h-.6Zm1.136-2.4a3.971,3.971,0,0,1,1.242-.224c.7,0,1.136.247,1.136.976v1.65h-.6v-1.6c0-.37-.248-.5-.58-.5a2.344,2.344,0,0,0-.592.079v2.031h-.6v-2.4Zm3.5,1.919a1.621,1.621,0,0,0,.426.056.85.85,0,0,0,.958-.886.788.788,0,0,0-.84-.8,1.128,1.128,0,0,0-.544.123Zm3.23-1.65c.3,0,.521.123.521.4v.213h-.3c-.781,0-1.254.258-1.254.774,0,.583.521.785,1.219.785a4.847,4.847,0,0,0,.935-.1V8.388c0-.64-.426-.875-1.017-.875a1.838,1.838,0,0,0-.887.213V8.22a1.506,1.506,0,0,1,.781-.213Zm.521,1.01h-.26c-.426,0-.7.112-.7.382s.26.37.627.37a1.751,1.751,0,0,0,.331-.034Zm1.858.718a1.482,1.482,0,0,1-.828-.292v.55a1.7,1.7,0,0,0,.84.213c.592,0,1.029-.247,1.029-.785,0-.46-.272-.684-.887-.808-.308-.079-.426-.168-.426-.337s.142-.292.4-.292a1.332,1.332,0,0,1,.757.258V7.715a1.461,1.461,0,0,0-.781-.2c-.556,0-.97.258-.97.774,0,.449.237.662.8.785.355.09.509.157.509.37s-.177.292-.45.292ZM23.8,8.983v.011a.813.813,0,0,0,.876.707,1.593,1.593,0,0,0,.911-.247v.5a1.853,1.853,0,0,1-.958.236,1.285,1.285,0,0,1-1.42-1.324A1.283,1.283,0,0,1,24.52,7.513a1.071,1.071,0,0,1,1.171,1.178v.292ZM24.508,8a.566.566,0,0,1,.615.617h-1.3A.7.7,0,0,1,24.508,8Z" transform="translate(-3102.3 -1629.726)" fill="#fff" fill-rule="evenodd"/>
  </g>
</svg>
