<svg xmlns="http://www.w3.org/2000/svg" width="24" height="24" viewBox="0 0 24 24">
  <g id="swyftx" transform="translate(3073 1633)">
    <rect id="Rectangle_3155" data-name="Rectangle 3155" width="24" height="24" rx="12" transform="translate(-3073 -1633)" fill="#283339"/>
    <g id="swyftx-2" data-name="swyftx" transform="translate(-3066.538 -1630)">
      <path id="Path_10010" data-name="Path 10010" d="M520.455,584.3c-.072.037-.166.01-.2.13a4.74,4.74,0,0,1-1.1,1.7,23.889,23.889,0,0,1-3.393,2.951,4.748,4.748,0,0,1-2.836.937c-.008-.1.071-.159.123-.221.6-.716,1.215-1.421,1.8-2.146.656-.8,1.311-1.608,1.985-2.4a3.189,3.189,0,0,0,.267-.386c.065-.1.037-.177-.084-.218a2.381,2.381,0,0,0-.684-.113,22.512,22.512,0,0,0-3.55.224,1.776,1.776,0,0,1-.312.017,3.714,3.714,0,0,1,1.6-.842,5.659,5.659,0,0,1-1.893-.716c.009-.1.077-.044.123-.045a18.522,18.522,0,0,0,2.2.223,7.593,7.593,0,0,0,2.386-.287,1.377,1.377,0,0,0,.779-.593,2.468,2.468,0,0,0,.4-1.747,21.488,21.488,0,0,0-2.343-6.931c-.028-.055-.057-.109-.085-.164a.112.112,0,0,1,0-.03.425.425,0,0,1,.384.112,11.088,11.088,0,0,1,2.263,2.121,13.9,13.9,0,0,1,2.65,5.161,1.894,1.894,0,0,1-.2,1.362c-.048.1-.1.2-.16.319a3.661,3.661,0,0,1,.738.088,1.5,1.5,0,0,1,.789.519c.1.123.095.214-.027.31a3.01,3.01,0,0,1-1.5.645.466.466,0,0,0-.225-.011c-.027.006,0,.043,0,.016,0-.01,0-.015.011-.016C520.386,584.27,520.424,584.261,520.455,584.3Z" transform="translate(-512.134 -573.634)" fill="#fff"/>
      <path id="Path_10011" data-name="Path 10011" d="M710.958,832.6c-.088.018-.135.018-.143,0a.024.024,0,0,1,0-.02.329.329,0,0,1,.126-.03.164.164,0,0,1,.123.038Z" transform="translate(-702.637 -821.938)" fill="#fff"/>
      <path id="Path_10012" data-name="Path 10012" d="M511.442,805.875s-.154-.047-.161-.015.036.06.036.06.12,0,.12,0Z" transform="translate(-511.279 -796.331)" fill="#fff"/>
    </g>
  </g>
</svg>
